<svg width="51" height="10" fill="none" xmlns="http://www.w3.org/2000/svg"><path d="M5.05 2.33L5.333.605h1.532L6.573 2.33h1.23v1.772H6.294L6.04 5.559h1.387V7.33H5.746L5.43 9.237H3.908l.316-1.907H2.752l-.315 1.907H.888l.329-1.907H0V5.56h1.498l.255-1.457H.376V2.33h1.668L2.336.605h1.522L3.579 2.33h1.472zm-.535 3.229l.244-1.457H3.288l-.244 1.457h1.471zM8.988.592h3.614c1.206 0 2.092.304 2.64.91.56.595.841 1.359.841 2.282 0 2.33-1.45 3.4-3.834 3.4h-1.108v1.968H8.988V.592zm2.153 4.834h.888c1.217 0 1.79-.619 1.79-1.48 0-.876-.475-1.53-1.583-1.53h-1.095v3.01zM21.76 2.55h2.105v6.603H21.76v-.39a3.238 3.238 0 01-1.716.498c-1.01 0-1.8-.341-2.372-1.02-.573-.68-.865-1.482-.865-2.405 0-.933.292-1.734.865-2.403.572-.68 1.362-1.021 2.372-1.021.573 0 1.146.145 1.716.45v-.313zm0 2.17c-.366-.304-.803-.45-1.328-.45-.499 0-.889.16-1.18.461a1.55 1.55 0 00-.438 1.105c0 .426.146.802.438 1.116.291.304.681.463 1.18.463.522 0 .962-.145 1.328-.45V4.72zm9.389 3.158a3.179 3.179 0 01-2.604 1.383c-1.01 0-1.861-.328-2.58-.994-.705-.67-1.058-1.468-1.058-2.417 0-.96.353-1.762 1.058-2.428.719-.669 1.57-.997 2.58-.997 1.071 0 2.007.524 2.63 1.36l-1.339 1.237c-.291-.497-.718-.754-1.291-.754a1.54 1.54 0 00-1.119.46c-.302.302-.464.68-.464 1.116 0 .426.16.802.464 1.106.305.304.682.463 1.119.463.573 0 .997-.254 1.291-.754l1.313 1.219zm5.324-2.732l2.373 4.007h-2.312l-1.437-2.38-.851.862v1.518h-2.095V0h2.095v4.832l2.13-2.283h2.422l-2.325 2.597zm9.013 1.288h-4.53c.245.74.804 1.153 1.536 1.153.536 0 1.143-.328 1.472-.801l1.315 1.081c-.62.876-1.705 1.397-3.007 1.397-.986 0-1.803-.328-2.447-.984-.645-.656-.963-1.468-.963-2.428s.316-1.772.963-2.427c.644-.67 1.46-.997 2.447-.997 1.01 0 1.79.328 2.36.983.573.656.864 1.518.864 2.573l-.01.45zM43.513 5.22c0-.595-.329-1.166-1.241-1.166-.644 0-1.156.487-1.315 1.166h2.556zm5.14-2.67v.727c.522-.558 1.193-.839 2.034-.85a.72.72 0 01.196.014V4.71a4.055 4.055 0 00-.708-.072c-.962 0-1.471.474-1.522 1.42v3.097H46.56V2.55h2.094z" fill="#202020"/></svg>