<svg width="14" height="8" fill="none" xmlns="http://www.w3.org/2000/svg"><path d="M6.995 8c-1.384-.007-2.642-.458-3.82-1.166A12.545 12.545 0 01.147 4.27c-.192-.222-.192-.322-.007-.536C1.202 2.518 2.425 1.513 3.862.79c2.145-1.083 4.286-1.044 6.41.068 1.39.73 2.582 1.72 3.616 2.911.144.165.15.29.018.444-1.329 1.516-2.864 2.736-4.766 3.419A6.694 6.694 0 016.995 8zm3.255-3.995C10.25 2.182 8.79.68 7.01.68c-1.794 0-3.26 1.49-3.263 3.322-.003 1.817 1.465 3.315 3.252 3.315 1.78.004 3.252-1.491 3.252-3.312zM.66 3.998C1.717 5.146 2.895 6.105 4.3 6.763c-.722-.78-1.11-1.695-1.11-2.765 0-1.069.392-1.985 1.11-2.764C2.895 1.888 1.714 2.85.659 3.998zm9.05-2.775c1.475 1.842 1.49 3.677.031 5.522.904-.311 3.105-2.003 3.589-2.761-1.052-1.137-2.229-2.092-3.62-2.76z" fill="#000"/><path d="M8.708 4.013c-.01.962-.792 1.741-1.731 1.73-.932-.01-1.7-.811-1.69-1.76.011-.954.786-1.734 1.714-1.73.943.004 1.717.805 1.707 1.76zm-.56-.004c.003-.637-.509-1.177-1.136-1.184-.631-.01-1.164.526-1.167 1.173-.004.637.518 1.173 1.142 1.177.631 0 1.157-.526 1.16-1.166z" fill="#000"/></svg>