<svg width="16" height="16" fill="none" xmlns="http://www.w3.org/2000/svg"><path d="M0 7.746c.022-.106.044-.213.063-.32.275-1.377 1.593-2.455 2.995-2.423.923.021 1.665.444 2.25 1.146.079.094.129.094.229.044 1.486-.761 2.973-1.516 4.46-2.274.072-.038.144-.053.11-.179C9.64 2.096 10.803.476 12.3.088c1.28-.332 2.648.298 3.324 1.52.745 1.346.316 2.987-1.017 3.877-1.286.858-2.91.595-3.915-.636a9.444 9.444 0 00-.094-.113c-.054.025-.107.047-.157.072-1.477.752-2.954 1.507-4.435 2.259-.103.053-.144.094-.106.222a2.59 2.59 0 01-.006 1.447c-.026.091-.007.129.072.17 1.524.773 3.048 1.55 4.575 2.327.013.006.029.01.057.022.031-.035.065-.073.097-.113.585-.686 1.314-1.106 2.225-1.137 1.409-.044 2.736 1.05 3.024 2.434.347 1.666-.958 3.301-2.554 3.53-.047.006-.091.022-.135.031h-.5c-.107-.022-.214-.04-.32-.066-1.553-.329-2.798-1.986-2.322-3.674.03-.116-.016-.144-.097-.185-1.493-.758-2.983-1.516-4.473-2.28-.103-.053-.153-.04-.228.047-.576.692-1.306 1.112-2.22 1.143-1.405.05-2.75-1.04-3.026-2.424-.022-.107-.044-.213-.063-.32C0 8.078 0 7.912 0 7.746zm15.001-4.742c.007-1.171-.816-2.008-1.978-2.014-1.176-.006-2.018.808-2.025 1.967-.009 1.178.792 2.027 1.969 2.04 1.192.012 2.028-.809 2.034-1.993zm-2.015 11.997c1.18 0 2.01-.82 2.015-1.995.007-1.175-.823-2.008-2-2.011-1.198-.003-1.993.845-2.003 1.989-.009 1.18.817 2.017 1.988 2.017zM5.002 8.013c-.004-1.153-.786-2.008-1.975-2.018-1.18-.012-2.02.805-2.029 1.961C.99 9.146 1.8 9.986 2.964 10c1.214.015 2.019-.83 2.038-1.986z" fill="#fff"/></svg>