<svg width="168" height="21" fill="none" xmlns="http://www.w3.org/2000/svg"><path fill-rule="evenodd" clip-rule="evenodd" d="M54.601 7.498a3.835 3.835 0 00-3.833 3.853v.052a3.835 3.835 0 003.833 3.853 3.835 3.835 0 003.834-3.853c0-2.187-1.71-3.905-3.834-3.905zm0-3.801c-3.73 0-6.838 2.707-7.511 6.3h-3.886v-6.3h-3.781v15.308h3.782v-5.207H47.4c1.036 3.02 3.885 5.207 7.2 5.207 4.196 0 7.616-3.437 7.616-7.654 0-4.218-3.42-7.654-7.616-7.654zm20.877 10.049H66.05V3.645h3.782v6.3h5.646V3.697h3.782v15.308h-3.782v-5.26zm-51.752 5.259h-3.781l4.714-15.308h9.117v15.308h-3.782V7.498H27.25l-3.523 11.507zM3.782 0H0v19.005h3.782v-7.55h6.268l2.331 7.55h3.782l-2.901-9.477L16.162 0h-3.78L10.05 7.654H3.833V0h-.051z" fill="#202020"/><path d="M118.424 5.155h-1.347V3.332h1.295c.363 0 .622.156.777.313.104.156.155.312.155.572 0 .209-.103.469-.207.625-.155.156-.362.313-.673.313zm2.227-.886c0-.572-.207-1.04-.518-1.405-.414-.417-.984-.677-1.709-.677h-2.694V7.81h1.347V6.404h1.347c.673 0 1.191-.208 1.606-.573.362-.416.621-.937.621-1.562zm-10.93-.937h1.916v4.426h1.347V3.332h1.917V2.135h-5.18v1.197zm-2.176-1.197v2.03h-2.383v-2.03h-1.347v5.623h1.347V5.363h2.383v2.395h1.347V2.135h-1.347zM98.22 7.758h4.611V6.56h-3.264V5.52h2.849V4.321h-2.849v-.938h3.16v-1.25H98.22v5.624zM92.21 6.56V1.041h-1.346v6.717h5.232L96.2 9.06h1.14v-2.5h-.57V1.041h-1.347v5.52H92.21zm71.905 6.821h-1.295v5.624h1.191l2.694-3.437v3.437H168V13.38h-1.191l-2.642 3.437V13.38h-.052zm-7.305 1.198h1.917v4.426h1.347v-4.426h1.917V13.38h-5.181v1.198zm-4.714 1.614c0-.52.156-.937.466-1.25.259-.312.726-.468 1.244-.468.57 0 1.036.156 1.554.677l.829-.886c-.726-.729-1.451-1.04-2.383-1.04-.829 0-1.554.311-2.072.728-.57.52-.985 1.25-.985 2.135 0 .78.259 1.406.674 1.874.518.625 1.347 1.042 2.383 1.042.984 0 1.657-.313 2.383-1.042l-.829-.885c-.57.52-.984.677-1.554.677-.466 0-.881-.156-1.192-.52-.311-.105-.518-.521-.518-1.042zm-6.682 0c0-.52.155-.937.466-1.198.311-.312.725-.468 1.191-.468.466 0 .829.156 1.14.468.311.313.466.73.466 1.25s-.155.99-.466 1.25a1.52 1.52 0 01-1.14.468c-.466 0-.88-.156-1.139-.468-.311-.365-.518-.781-.518-1.302zm1.657-2.916a3.08 3.08 0 00-2.072.781 2.914 2.914 0 00-.932 2.135c0 .78.31 1.562.828 2.083.519.52 1.296.833 2.124.833.829 0 1.555-.313 2.073-.833.569-.521.88-1.302.88-2.083a2.88 2.88 0 00-.829-2.03c-.466-.573-1.243-.886-2.072-.886zm-9.998.104v5.624h1.295V15.62h.052l1.399 2.135h.57l1.398-2.135h.052v3.385h1.347V13.38h-1.295l-1.71 2.604-1.709-2.604h-1.399zm-4.921 0h-1.295v5.624h1.191l2.694-3.437v3.437h1.295V13.38h-1.191l-2.642 3.437V13.38h-.052zm-7.149 5.624h1.295V16.61h.673l1.347 2.395h1.606l-1.813-2.968c.104-.052.155-.156.207-.26l.518-.99c.052-.104.104-.156.156-.156.103-.052.207-.052.311-.052h.414l.104-1.146c-.311-.052-.518-.104-.778-.104-.31 0-.621.052-.828.208-.259.157-.415.365-.57.625l-.518 1.094c-.052.052-.052.104-.104.156-.052.052-.103.052-.155.052h-.518v-2.03h-1.295v2.03h-.518c-.052 0-.104 0-.156-.052-.052-.052-.103-.052-.103-.156l-.519-1.094c-.155-.26-.31-.468-.569-.625-.259-.156-.518-.208-.829-.208-.259 0-.466 0-.777.104l.103 1.146h.415c.155 0 .259 0 .311.052l.155.156.518.99c.052.104.104.208.207.26l-1.813 2.968h1.606l1.347-2.395h.673v2.395h-.103zm-8.289-5.624h-1.295v5.624h1.192l2.693-3.437v3.437h1.295V13.38h-1.191l-2.642 3.437V13.38h-.052zm-3.937 1.666c0 .157-.052.26-.155.313-.104.104-.208.104-.415.104h-1.45v-.885h1.45c.207 0 .311.052.415.156.103.052.155.156.155.313zm.259 2.187a.595.595 0 01-.155.417c-.104.104-.311.156-.518.156h-1.606v-1.145h1.657c.259 0 .415.052.518.156.052.156.104.26.104.416zm-.725 1.77c.725 0 1.243-.208 1.606-.572.311-.313.466-.73.466-1.25a1.74 1.74 0 00-.207-.78c-.156-.21-.311-.417-.57-.522v-.052c.207-.104.311-.26.414-.416a1.05 1.05 0 00.156-.573 1.34 1.34 0 00-.415-.99c-.31-.364-.829-.52-1.502-.52h-2.797v5.623h2.849v.053zm-5.699-4.425v3.228h-2.279c.155-.208.207-.312.259-.677l.414-2.551h1.606zm-2.745-1.198l-.57 3.489c-.052.312-.104.572-.311.729a.788.788 0 01-.518.208h-.207v2.239h1.191l.104-1.041h3.678l.104 1.04h1.191v-2.238h-.57v-4.426h-4.092zm-6.787 5.624h4.611v-1.198h-3.264v-1.041h2.85v-1.198h-2.85v-.99h3.16v-1.197H97.08v5.624zm-2.486-5.624v2.03H92.21v-2.03h-1.347v5.624h1.347V16.61h2.383v2.395h1.347V13.38h-1.347z" fill="#006FCD"/></svg>