<svg width="77" height="19" fill="none" xmlns="http://www.w3.org/2000/svg"><path opacity=".3" d="M27.511 4.112h-1.344V2.29h1.292c.362 0 .62.157.776.313.104.156.155.312.155.572 0 .209-.103.469-.207.625-.155.156-.362.312-.672.312zm2.224-.885c0-.572-.207-1.04-.517-1.405-.414-.417-.983-.677-1.707-.677h-2.689v5.622h1.345V5.362h1.344c.672 0 1.19-.209 1.603-.573.362-.416.62-.937.62-1.562zM18.823 2.29h1.914v4.425h1.344V2.29h1.914V1.093h-5.172V2.29zm-2.172-1.197v2.03h-2.378v-2.03h-1.345v5.622h1.345V4.321h2.378v2.394h1.345V1.093h-1.345zM7.343 6.715h4.603V5.518H8.688V4.477h2.844V3.279H8.688v-.937h3.154V1.093H7.343v5.622zM1.345 5.518V0H0v6.715h5.223l.103 1.301h1.138V5.518h-.569V0H4.551v5.518H1.345zm71.777 6.819h-1.293v5.622h1.19l2.688-3.436v3.436H77v-5.622h-1.19l-2.637 3.436v-3.436h-.051zm-7.292 1.197h1.913v4.425h1.345v-4.425h1.913v-1.197h-5.17v1.197zm-4.706 1.614c0-.52.155-.937.466-1.25.258-.312.724-.468 1.24-.468.57 0 1.035.156 1.552.677l.828-.885c-.724-.729-1.448-1.041-2.38-1.041-.827 0-1.55.312-2.068.729-.569.52-.982 1.249-.982 2.134 0 .78.258 1.405.672 1.874.517.624 1.345 1.04 2.379 1.04.982 0 1.655-.311 2.379-1.04l-.828-.885c-.569.52-.982.676-1.551.676-.466 0-.88-.156-1.19-.52-.31-.104-.517-.52-.517-1.041zm-6.67 0c0-.52.154-.937.465-1.197.31-.313.724-.469 1.19-.469.465 0 .826.156 1.137.469.31.312.465.728.465 1.249 0 .52-.155.989-.465 1.25-.31.312-.672.468-1.138.468-.465 0-.879-.156-1.137-.469-.31-.364-.518-.78-.518-1.301zm1.654-2.915c-.827 0-1.551.312-2.068.78a2.916 2.916 0 00-.931 2.135c0 .78.31 1.561.827 2.082.517.52 1.293.833 2.12.833.828 0 1.552-.312 2.069-.833.569-.52.879-1.301.879-2.082 0-.78-.31-1.51-.827-2.03-.466-.573-1.242-.885-2.069-.885zm-9.98.104v5.622h1.292v-3.384h.052l1.396 2.134h.57l1.395-2.134h.052v3.384h1.345v-5.622h-1.293L49.23 14.94l-1.706-2.603h-1.396zm-4.913 0h-1.293v5.622h1.19l2.688-3.436v3.436h1.293v-5.622h-1.189l-2.637 3.436v-3.436h-.052zm-7.136 5.622h1.292v-2.395h.673l1.344 2.395h1.603l-1.81-2.967c.104-.052.156-.156.207-.26l.517-.99c.052-.104.104-.156.155-.156.104-.052.207-.052.31-.052h.414l.104-1.145c-.31-.052-.517-.104-.776-.104-.31 0-.62.052-.827.208-.259.156-.414.364-.57.625L36.2 14.21c-.052.052-.052.104-.104.156-.051.052-.103.052-.155.052h-.517v-2.03H34.13v2.03h-.517c-.051 0-.103 0-.155-.052-.052-.052-.103-.052-.103-.156l-.517-1.093c-.156-.26-.31-.469-.57-.625-.258-.156-.517-.208-.827-.208-.258 0-.465 0-.775.104l.103 1.145h.414c.155 0 .258 0 .31.052l.155.156.517.99c.052.104.104.208.207.26l-1.81 2.967h1.603l1.345-2.395h.672v2.395h-.103zm-8.274-5.622h-1.293v5.622h1.19l2.688-3.436v3.436h1.293v-5.622h-1.19l-2.637 3.436v-3.436h-.051zm-3.93 1.666c0 .156-.052.26-.156.312-.103.104-.207.104-.413.104h-1.448v-.885h1.448c.206 0 .31.052.413.156.104.052.155.157.155.313zm.258 2.186a.593.593 0 01-.155.416c-.104.104-.31.157-.517.157h-1.603v-1.146h1.654c.259 0 .414.053.518.157.051.156.103.26.103.416zm-.724 1.77c.724 0 1.241-.208 1.603-.573.31-.312.465-.729.465-1.25a1.74 1.74 0 00-.206-.78c-.155-.208-.31-.416-.57-.52v-.053c.208-.104.311-.26.415-.416.103-.156.155-.364.155-.573 0-.416-.155-.728-.414-.989-.31-.364-.827-.52-1.5-.52h-2.792v5.622h2.844v.052zm-5.688-4.425v3.228h-2.276c.155-.209.207-.313.259-.677l.413-2.55h1.604zm-2.741-1.197l-.569 3.488c-.052.312-.103.572-.31.728a.787.787 0 01-.517.209h-.207V19h1.19l.103-1.041h3.671L16.445 19h1.189v-2.238h-.569v-4.425H12.98zm-6.774 5.622h4.602v-1.197H7.55V15.72h2.844v-1.197H7.55v-.989h3.154v-1.197H6.206v5.622zm-2.483-5.622v2.03H1.345v-2.03H0v5.622h1.345v-2.395h2.378v2.395h1.345v-5.622H3.723z" fill="#fff"/></svg>