<svg width="79" height="33" fill="none" xmlns="http://www.w3.org/2000/svg"><path fill-rule="evenodd" clip-rule="evenodd" d="M52.217 15.039a2.842 2.842 0 00-2.852 2.846v.038a2.842 2.842 0 002.852 2.846 2.843 2.843 0 002.852-2.846c0-1.615-1.272-2.884-2.852-2.884zm0-2.808c-2.775 0-5.087 2-5.588 4.654h-2.89V12.23h-2.813v11.307h2.813v-3.846h3.122c.77 2.231 2.89 3.846 5.356 3.846 3.122 0 5.665-2.538 5.665-5.653a5.644 5.644 0 00-5.665-5.654zm15.492 7.423h-7.014v-7.462h2.813v4.654h4.2v-4.615h2.814v11.307h-2.813v-3.884zm-38.46 3.884h-2.813l3.507-11.307h6.782v11.307h-2.813v-8.5H31.87l-2.62 8.5zM14.413 9.5H11.6v14.038h2.813v-5.576h4.663l1.734 5.576h2.813l-2.158-7 2.158-7H20.81l-1.734 5.654H14.45V9.5h-.038zm58.344-1.385h-46.32l.808 1.347h44.78l.732-1.347zM24.972 1.192l3.237 5.577H9.71l1.58-2.73h12.062l1.619-2.847zm46.205 26.423h-47.13l-.81 1.347h3.353l-1.657 2.884-1.695-2.884H11.253l-1.58-2.731h60.695l.81 1.384zM29.557 6.77L25.666 0H9.557L0 16.5 9.557 33h16.108l2.351-4.038h43.778l.77-1.347-.77-1.346h1.58L79 16.54l-4.046-7h-1.58l.77-1.347-.77-1.346H29.558V6.77z" fill="#fff"/></svg>