<svg width="551" height="349" fill="none" xmlns="http://www.w3.org/2000/svg"><path opacity=".1" d="M549.545 48.46h-.684l-1.368-.685.684-.684.684.684.684-.684v-1.368h-1.368l-.684-.684-.683.684v.684l-.684-.684h-1.368v-1.368l-.684-.685h-.683v.684l-.684-.684v-.684l1.367-.684v-1.368h-.683l1.367-.684-.684-1.368v-.684l-1.367-1.369h-1.368l-1.368 1.369v-1.369l.684-.684-.684-1.368v-.684h-.683l-.684.684-.684-.684-.684-.684h-1.367l1.367-.684h1.368l1.367-1.368.684.684.684-2.053h1.368v-.684l-.684-.684-2.735-.684h3.419l.684-.684-.684-1.368-1.368-.684-.684-1.369h-.684v-.684l.684-1.368-.684-2.736v-.684l.684-.684v-.684l-1.367-.685-1.368 1.369-.684.684V16.99h-.684v.685h-.683v-2.053l-3.419-.684v2.053h-1.368l-.684-.685v-.684h-1.367l-.684-.684h-.684l-2.052.684h-2.051l-.684.684h1.368l-.684.684-1.368.685h-.683l.683.684.684.684v.684h-1.367l-.684-2.052v-.684h-.684l-1.368 2.052.684 2.736-1.367.684v.684l1.367-1.368h.684l.684 1.368.684.684 2.051 1.369v1.368l-.684.684v.684h1.368l1.367-.684.684.684v.684l.684 2.052v.685l-.684-.684-.684-1.369h-.683l-.684.684v.684l.684.685v.684h-.684l-.684-1.368h-1.368l-1.367.684-.684-.684V28.62l.684-.684-.684-1.368-.684-.684v-1.368l-2.051-.684-1.368-3.421-1.368-1.368v-.684l-.683-.684h-.684v1.368h-.684l-.684-.684-2.051-1.369h-2.735v.685l.683.684 2.052.684-1.368.684-2.051-.684-.684-.684v-.684l-.684-.684h-1.368l1.368.684v.684l-1.368.684-.683-1.368v-.684h-2.736v.684h-.683l-.684-.684h-1.368l.684.684-4.787-.684-1.367.684-2.052-.684v-.685l-1.367-.684v.684l-.684-.684h-.684l-.684-.684h-.684v.684h-2.735l-.684.684h-1.367l-3.419-.684v-.684l2.051.684.684.684v-.684l-2.735-2.052-3.419-.684-1.368.684-.684-.684.684-.684-.684-.684h-1.367l-1.368-.684-3.419-1.369h-2.052l-.683.684h-.684l-.684-.684-.684.684h-2.051l-.684-.684h-2.735l-.684.684v.685l-.684-.684-4.103 1.368v1.368l-.684-.684-1.367 2.736h-.684l-.684-.684h-1.367v.684h-.684l-.684.684-1.368-.684h-1.367v.684h-5.471l-.684-.684-2.735.684 1.368 1.369.684 2.052.683.684v1.368l.684 1.368.684.684v1.369h.684l.684-.684 2.051.684.684.684h.684l2.051 2.052.684 1.368 1.368.684 1.367 1.369v1.368l-.684.684.684.684-.684.684h-.683l-1.368.684v.684h-1.368l-.684.684h-2.051l-.684-.684v-1.368l-2.051-2.736h-1.368l-2.735-.684h-1.368l-.684-.685h-1.367V28.62l-.684-.684h-1.368v-.684l-.683-1.368-1.368-.684-.684.684v3.42l-1.367 2.053-.684.684-.684-.684v-.684h-.684l-.684.684h-2.051l-2.052.684h-.683l-1.368 1.368h-2.051l-1.368-.684h-.684l-.684.684v.684l-2.051.684-.684.684h-2.051l-1.368 1.368v4.789l2.051 2.736v1.369l-1.367-2.053-1.368-1.368h-.684l-1.367-.684v.684l1.367.684.684 1.369v.684l-1.367-2.053h-.684v-2.052l-2.052-1.368-.683-1.368h-.684l.684 1.368v.684l-.684-1.368-1.368-.684h-1.368v.684l-.683-.684h-1.368l-1.368 1.368h-1.367l.684-1.368v-.684l-2.052-.685v-1.368l-.684-.684v-.684l-.683-2.052-2.052-2.053-2.735-1.368-2.052-2.052-5.47-2.052h-4.103l-2.051 1.368v.684h-1.368l-2.051.684-4.103 1.368-1.368.684-2.051 2.053-1.368.684-2.051 2.052-1.368.684-1.368 1.368-.683-.684-1.368-.684-2.735.684-1.368.684 1.368-1.368 2.051-1.368v-.684l-1.368-2.053-2.735-.684-2.735-1.368h-1.368l-1.367 2.052v1.369l-.684-.684h-.684l-.684 1.368-.683.684v-.684l.683-1.368.684-.684-.684-1.369-1.367-.684-1.368 1.368v.684l-.684 1.369v-2.053l-1.367-1.368-.684-1.368-1.368 1.368h-2.735l.684-.684v-2.052l-.684-1.368 2.051 1.368.684-.684v-1.37l-1.367-2.052-3.419-1.368-2.736-.684-3.419.684-2.735.684-2.051 1.368.683 5.473v1.368l.684.684-1.367 1.369v1.368l-1.368 2.052h-.684l-.684-.684v-.684l-1.367-.684.683-.684h.684l.684-1.368V28.62l-1.368-.684-.683-2.052h.683l1.368-.684v1.368l1.368.684.684 2.052v-3.42l-.684-2.053-3.419 1.369-2.736 2.052v1.368l-1.367 1.368-1.368-.684v-.684l.684-.684-1.368-1.368.684-2.052 1.368.684h.684l1.367.684 3.419-1.368 1.368-.684h-10.941l-.684.684-6.154.684h-3.419l-2.052.684-2.051-1.368h-2.052l-1.367.684 1.367 1.368h2.052l.684.684h.684l1.367 1.368v.684l-2.051 2.053h-1.368l-2.051.684v1.368l-.684.684 1.367 2.052 2.052.684v-1.368l1.368-1.368 2.051-.684-.684 2.052h-2.051l.684 1.368.683.684-1.367.685h1.367l1.368-.684.684.684v1.368l1.367 1.368h1.368l1.368 2.052v.684l-.684-.684-1.368.684.684 1.369-.684.684-.684-.684h-.683l-.684-1.369-1.368-1.368h-.684l.684.684-.684.684-.683-.684-3.42 2.053.684 1.368v1.368h1.368l1.368-.684.683.684-.683 1.368 1.367.684-.684.684-1.367-.684v.684l1.367.684h-2.051l-.684-1.368h-2.051l-.684-.684h-1.368l-1.367-1.368h-1.368l-1.368-.684h-1.367l-3.419 1.368v.684l-.684.684.684.684v.684l.684 1.369-1.368-.684-.684.684-.684-.684-4.103.684h-2.051l-1.368-1.368h-1.367l-1.368-1.369-.684-1.368-.684-.684v.684l.684 2.052v2.737l1.368 3.42 1.368 2.737 1.367 5.472v1.369h-.684l-.683-.684v-.685l-1.368-2.052-.684.684.684.684-.684.684-1.368-.684-2.051-1.368h-2.735l-1.368-1.368-.684-.684-3.419-3.42h-.684l-.683.683h-.684l-.684-.684 2.051-2.052h.684l-.684-.684-1.367-.684-1.368-1.368v.684l.684.684V55.3l-1.368.684h-.683l-2.052-1.368-.684-.684h-2.051l-.684-1.368-.684-.684h2.052l2.051.684.684.684 1.368-.684.683-1.368v-.685l-.683.684v-.684h-.684l.684-1.368-1.368-1.368-.684.684v-.684l-.684-.684-.683.684-.684.684h-2.052v-1.368l2.052-2.052v-.684h-.684l-1.368 1.368v-1.368l.684-.685-.684-1.368h-.684l-.683.684v-.684h-.684l-.684-.684-.684-.684.684-1.368-.684-.684-.684.684-.683 1.368-.684-2.052-.684-.684-.684.684h-.684l-.683-3.42-.684.683h-.684v.684-2.052h-1.368l-1.367.684-.684-.684-1.368.684h-.684v.684l.684.684.684 1.369h-1.368v.684h-2.051l.684-.684.684-.684-1.368-2.053h-.684v.684l-.684.684-.683-.684h-.684l-.684-1.368v.684h-2.051l-.684-.684v.684l-.684.684-2.052-.684h-.683v1.368l-1.368.684h-.684v-.684l-.684.684v1.369l.684.684v1.368h.684v1.368h1.368l.683.684v1.369l.684.684v.684l-.684 1.368h-.683l-.684-.684-1.368.684h-1.367l.683.684-.683 1.368h-2.052l-2.051 1.368-3.419.684-1.368-.684h-8.206l-1.367-1.368-.684-2.052.684-1.368h.683v-.684l-1.367-.684h-1.368l-3.419 1.368h-4.103l-3.419.684-2.051.684-.684.684h-.684l-.684.684-1.367.684-1.368 1.368.684 1.369h.684l.684-.684h.683l-.683.684h-.684l-.684 1.368v.684l-.684-.684v-2.052l-1.367-1.369v-2.052h-.684l-2.052-2.052h-.684v.684l1.368 2.052v1.368l-.684.684-2.051.684-.684.685h-1.368l-2.735-2.053V48.46l.684-.684v-.684l-1.368.684v1.368l-.683.684-2.736-2.052h-1.367l-1.368.684v2.052l-.684 1.369.684 1.368 1.368.684 1.367-1.368v-.684l2.052-1.369.684.684v1.369l-2.052 1.368.684.684-.684 1.368h-1.368l-1.367-.684v.684l.684 1.368-.684 1.369-1.368 1.368.684.684-.684.684h-.684l-1.367 1.368h-4.103l-.684 1.368.684 1.368 2.051 2.053h-1.367l-.684.684v.684l-.684.684-.684 1.368h-.683l-.684.684v-.684l.684-.684.683-2.736-.683-.684v-.684l.683-.684v-2.737l.684-1.368 1.368-.684.684-.684-.684-2.053v-.684l.684-.684h1.367v-.684l.684-2.052v-.684l-.684-2.052.684-2.737.684-1.368.684-2.052-.684-1.369-.684.684h-.684l-1.367-.684h1.367l1.368-1.368.684-.684.683-1.368v-.684l.684-.684.684-2.053v-.684l.684-1.368 1.367-.684v-.684l-.683-.684v-.684l.683-1.368v-.685l.684-.684h.684l.684-2.052V25.2l-.684-2.053-.684-1.368v-1.368h-1.367l-.684-.684-.684-.684-.684 1.368-.684.684-.683-.684-2.052.684v-.684h-1.367l-.684-.684h1.367l2.052.684.684.684.683-.684h.684l.684.684v.684h.684v-.684l-.684-1.368v-.684l-.684-1.368-.684-.684h-.683l-.684.684h-.684v-1.369l-1.368-1.368V13.57l-.683-.684-.684-.684h-.684l-.684.684v.684h.684l.684.684v.684h-1.368v.684h-.684l-2.051-2.052v-.684l-.684-.684h-.684l-4.103-2.053-1.367-.684h-2.052v-.684l.684-.684v-.684h-1.367l-.684-.684h-1.368l-.684 1.368h-1.367l-.684 1.368h-2.052l-1.367 1.369-2.052.684h-.683l-.684-.684h-.684l-.684.684v1.368h1.368l.684 1.368v2.052l-.684 1.369h-1.368l-1.368 1.368-2.051.684h-.684l.684-.684h.684v-1.368l-.684-2.737.684-1.368v-.684l.684-.684-.684-1.368V8.78l-1.368-1.368-.684.684-.683-.684h-.684V8.78h-1.368l-.684-.684-1.367.684-.684 1.368h-.684v-.684l.684-1.368v-.684h-.684l-2.051 2.736-2.736.685h-.683l.683-1.369h1.368l1.368-2.052V6.045l.684-.684V3.993l-1.368-.684-.684-.685V1.256h-.684l-1.367 1.368h-1.368l-.684-1.368h-.684l-.683.684L99.597.572h-.684L97.546 1.94v.684h-.684l.684 1.369-.684.684v2.052l-1.368 1.368-1.368 1.368v4.79l1.368 1.367v1.369h-.684v1.368l.684 1.368h1.368l1.367 1.368h1.368l-1.368.684.684 1.368v.684h2.052l1.367-.684 1.368.684h1.367l.684.685-.684.684h-3.419l-2.735.684-.684-.684-1.367.684H94.81l-.684.684h-2.051l-.684.684v.684l1.368.684v.684h1.367l.684.684 1.368-.684.684 1.369 1.367.684 1.368 2.052-.684 2.052-1.367.684.683-2.736-.683-.684v-1.368h-2.052v-.684h-.684l-.684.684H92.76l-1.368 1.368 1.368.684-.684.684h-1.368l.684.684v.684l-1.367 1.368v-1.368h-2.052l.684 1.368-.684.684h-.684v-1.368l-.683-.684v1.368l-.684 1.369-.684 1.368-1.368-.684v-.684l1.368-2.737-.684-.684h-1.367l-2.736.684-1.367-.684-1.368 1.368h-.684l-1.367-.684h-1.368l1.368 1.368-.684.684h-.684v-.684h-.684l-.684.684-.683.685v2.052l.683.684 1.368-1.368.684.684 2.051-1.368h.684v1.368l-3.419 1.368-.684 1.368-1.367.684-2.052.684v.685l.684.684-2.051.684-1.368-.684h-.684v.684h-.684l-1.367.684-.684.684.684.684h-.684v.684h-.684l-.684-.684h-.684l-.684 1.368v.684l-.683.684v3.422l-1.368.684h-2.051l-.684.684v1.368h.684l.684-.684 2.735.684-.684.684h-1.368v.685l.684.684v2.052l-.684.684v1.368l-1.367-1.368h-.684l-1.368-1.368h-.684v.684l.684.684v.684l-1.367.684.683 1.368 1.368-.684 1.368.684h1.367v.684l1.368.685h1.368l.683.684h-2.736l-.684-.684h-.683v.684l-.684.684 1.367 1.368.684-.684h2.051l.684 1.368.684.684.684-.684h1.368v.684l1.367 1.368h1.368l.684 1.369-.684 2.052-2.052 1.368-.683 1.368v.684l2.051 2.053 1.368.684H66.09l-2.051-2.053v-1.368l.684-2.052.683-.684v-.684l.684-1.368-.684-.684-3.419 1.368-2.051.684-1.368 2.052-1.367.684-1.368-.684h-1.368l-1.367 1.368-4.103 1.368-2.735.685h-1.368l-1.368 1.368h-1.367l-.684.684 1.368.684V85.4l.683.684h.684v.685l-.684.684 2.052 1.368 1.367 2.736v2.053l.684.684h.684v1.368l1.368.684h4.787l1.367-.684v1.368l.684.684v1.368l1.367.684.684 1.369h2.736l2.051 1.368h.684l1.367 1.368v2.736l.684 1.369v1.368l1.368 1.368 1.368.684 1.367 2.737.684 2.736 1.368 1.368.683 1.368-1.367 2.053h-1.368l.684 1.368h2.051l1.368.684 2.051 2.052 2.052.684h.684l2.051-1.368h2.052l2.05 1.368 1.368.684h.684l.684 1.369v2.052l-.684-2.052-.683-1.369h-1.368l-4.103-1.368h-1.368L78.4 127.13v2.053l-2.052-2.053h-2.051l-1.368-.684v-1.368l-.683-1.368-1.368-.684H69.51l-2.051-1.368.684-.684v-1.369l.684-.684v-3.42l-1.368-.684-.684-.684-.684 1.368h-.684v1.368l-.683.684v2.052h-.684l-.684-3.42.684-.684v-1.368l-2.052-1.369v-2.052h-.684v-1.368l1.368-.684v-4.105H60.62v-1.368l-2.052 1.368-2.735.684h-1.368l-2.051-2.052-1.368-.684v-1.368h-4.102l-1.368-.684-1.368-1.369H40.79l-1.367-.684-1.368.684-1.368 2.053v1.368l-.684.684-.683-.684v.684l.683.684 2.052-1.368 2.051.684.684 2.052-.684 2.053h-1.367l-2.736-.685-1.367-1.368h-.684l-1.367 1.368-.684.685h-.684l1.367 2.736h.684v.684l2.052 1.368h2.051l.684.684h2.735l.684-.684h.684v.684h2.051l.684 1.369h.684v1.368h2.051l-2.051 2.052-1.368-.684h-.684l-1.367-1.368h-.684l-1.368-.684h-1.367l-.684 1.368-.684-.684-.684-.684-.684.684h-2.735l-1.367-.684h-1.368l-.684-.684.684-.685v-.684l-.684-.684v-1.368l-1.367-1.368-.684-1.368.684-1.369-.684-1.368v-2.052l-1.368-1.368v-1.368l-.684-.684h-.684v-1.369l-1.367-1.368h-1.368l2.052 4.105.683 2.736-.683 2.052-2.052 2.053-1.367 1.368v.684l.683.684v1.368l-.683 2.053v1.368l2.051 1.368 2.735 2.052.684 1.368h1.368l1.367 1.369.684 2.052v4.789l1.368 2.052v2.052l.684 1.368 2.051 2.053v2.736l.684.684 1.367.684 1.368-.684 2.052.684.683-.684.684-1.368 1.368-1.368 1.367.684h.684l2.052 1.368 1.367-.684.684 1.368 2.735 1.368h2.052l1.367 1.369v.684l1.368.684.684.684v.684l.684.684-.684.684H55.15v2.052l.684 1.369.684.684v1.368l.684.684h1.367l.684.684h1.368l.684-1.368.683.684h2.052l-.684.684-.684.684h-3.42l-1.367-.684h-1.368l-.684-1.368.684-.684v-1.368l-.684-1.369v-1.368l-.684-.684v-1.368l-1.367-1.368h-.684l-.684-.684-2.051-.684v-1.369l-1.368-1.368h-1.368l-2.051 2.052h-1.368l-.684 1.369-3.419 2.052v3.42l.684.685 2.052 1.368 1.367 4.104v.684l-1.367 2.737v2.052l.683 1.368-.683 2.737v.684l-1.368 1.368v.684l-.684.684-.684.684v1.369l.684.684v1.368l-2.735.684h-2.052l-.683-.684h-4.103l-1.368-.684-4.103-.684-1.367-1.369-.684-1.368h-1.368l-.684.684-.683-.684h-.684l.684-1.368h1.367l2.735-.684.684-.684 2.736 1.368h.683v-.684h1.368v.684l-1.368.684.684.684H31.9l.684-1.368 1.367-.684v-.684l-.684 1.368v-.684l1.368.684.684-.684v-2.052l1.367-.684v-.685h-.684v-.684l1.368-.684v-2.052l-.684-.684.684-.684v-.684l.684-.684v-1.369l-1.368-1.368-.684-2.052v-2.737h.684v-.684l-1.367-1.368h-.684l-1.368-1.368-1.367-.684-2.052-2.737-.684-2.052-.683-.684.683-.684-1.367-.684-.684-1.368.684-1.368-1.368-2.737v-1.368l-1.367-1.368v-1.368l-.684-.685-.684-3.42-.684-1.368-1.368-.684-.683-2.053-.684-.684h-.684l-1.368-.684-.683-1.368-1.368-1.368-.684-1.368.684-.685v-.684l-.684-.684v-.684l1.368-.684.684-2.736-.684-1.369v-2.052l-.684-.684v-1.368l-.684-1.368.684-.684-.684-.684h-2.735l-3.42-1.369H7.967l-.684.684-.683-.684h-.684l-1.368.684H3.18l-1.368.684-.684-.684.684-.684-.684-.684H.444v4.105l.684 1.368-.684.684-.683 2.052.683.684v1.369l.684.684-.684.684v1.368l.684 1.368-.684 1.368v.685l.684 1.368v.684l-1.367 1.368-2.052 2.736-.684.685v.684l.684 1.368-.684.684v2.052l1.368 1.368.684-.684.684.684.683 2.053h1.368l.684.684h-.684v2.736l1.368 1.368v1.369l-.684.684-.684-.684v.684l.684 2.052.684.684.683 2.052.684-.684.684.684h1.368l1.367.684.684-1.368.684.684v2.053l.684.684h.683l2.052 2.736h1.368l.683-.684h.684v.684h.684l-.684.684v3.421l.684 1.368v.684h-.684v2.052h-1.367l-.684-2.736-1.368-1.368h-1.368l-.683-1.368-1.368-.685H5.915l-2.735-1.368H1.128v-.684H.444l-1.367-2.736-1.368.684-.684.684-.684-1.368.684-.684v-.684l-3.419-1.369-1.367-1.368h-5.47l-4.104.684h-2.051l-.684-.684h-1.368l-.683.684.683 1.368v.685l-1.367.684v.684l.684 1.368.683.684.684 2.052.684.684v-.684h.684l.684 2.053v.684h1.367l1.368 1.368h-1.368l-.684-.684h-.683l-.684 2.052-.684.684-1.368-.684-.683.684v.684l1.367 1.369.684.684v.684l-.684.684h-2.735l-.684-.684v-.684l-.684-1.369.684-.684v-.684l-2.051-2.052h-.684l.684-.684v-.684l-.684.684h-.684l-1.368 1.368h-.683l-.684.684v.684h-1.368l-.684.684v.684l-.683.685h-4.103l-.684-.685-1.368.685v.684h-1.367l-1.368 1.368v.684l.684.684v2.052l-.684-.684-.684-.684h-.684l-1.367 1.368-.684 1.369v-1.369l-1.368-.684-.684.684h-2.051v-.684l1.368-1.368h1.367l.684-.684-.684-1.368v-.684l.684-.684-1.367-1.369h-1.368l-.684-.684 2.051-.684h.684l1.368-.684v-.684h-2.051l-2.736 1.368-.684.684.684.684v.684l.684.685-.684.684h-.684l-.683-1.369.683-.684h.684v-.684l-2.051 2.053v.684l.684.684h.683v.684l-1.367 1.368-.684-.684.684-.684v-.684h-.684v-.684l-2.051.684v.684l-1.368.684h-2.051v.684l-2.052 2.736h-.684l-2.051 2.737-.684.684-.684-.684h-.684l.684 1.368 1.368 1.368v.684l-2.052-.684-.683.684-2.736.684-.683.685.683.684v.684l-.683 1.368.683 1.368-.683 1.368-2.052.684v.685h-1.368l-.683.684-.684-1.369-1.368.685h-.683l-2.052-2.737-2.051-2.052-3.42.684v-2.052h.684l.684-.684v-.685l.684-.684h1.368l.683-.684h2.052v-.684l-1.368-1.368v-.684h-1.367l-1.368-1.368v-.684l-1.368-1.369h-4.786l-.684.684h-1.368l-2.051-1.368h-1.368v.684l2.735 2.053 1.368 1.368.684 2.052v1.368l.684.684-.684.685v1.368h-.684v2.736l-.684 1.368.684 1.369h1.368l1.367.684.684.684v2.736l.684.684-.684.684v2.737l-.684.684.684 1.368v2.052l-.684-.684-.683-1.368-1.368-.684-1.368 1.368v-1.368l-.684-.684h-2.735l-1.367-.684h-1.368l-.684.684.684.684-2.052 1.368h-1.367l-.684.684v1.368l-1.368 1.369-1.367 1.368v.684l.684 1.368 2.051 2.736 1.368 2.737-.684.684h-.684v1.368l-.684.684-.684.684-1.367-1.368-3.419-1.368h-1.368v-.684h-2.051l-.684-.684-.684-1.368h-1.368l-1.367-.685h-1.368v2.053l.684.684h-2.735l.684 1.368v1.368l1.367.684.684 1.369 1.368.684.683-.684h.684l.684-.685v.685l1.368.684v.684l-.684.684h2.051v1.368h-1.367l-1.368 1.368h-.684l-.684-.684h-1.367l-.684-.684h-1.368l-.683-.684v-1.368l-.684-.684-.684-.684h-.684l-.684.684-2.051-.684-.684-.685-.684-.684.684-.684v-2.052l-2.051-.684v-.684l-1.368-1.368v-1.369h-.684v-.684h.684v-2.736h-.684v-.684l.684-.684h-.684l-1.367-1.369-2.736-.684-.683.684-.684-.684h-2.052l.684-.684h1.368l.684-2.736h-1.368.684l-.684-.684-.684.684h-2.051l.683-.684 1.368-.684v-.684l-1.368-.684v-.685l-1.367-.684v-1.368l-1.368-.684h2.052v.684l2.051 2.052h.684v-.684l1.368 1.369h2.051v-.685l.684.685-.684.684h.684v.684h1.367l.684-.684h2.735v.684l1.368 1.368h1.368v.684h3.419l1.367.684 2.052.684h6.154v-.684h1.368l.684-.684h2.051l.684-.684 2.051-2.736v-.685l1.368-1.368v-.684l.684-1.368v-4.105l-.684-.684h-.684l-.684-1.368-.684-.684-.683-1.368-1.368-1.368h-.684v.684l-1.367-.684v-.685l-2.052-1.368v-.684l-.684-1.368h-.683v.684l.683 1.368h-.683l-1.368-1.368h-.684l-1.368-.684v.684h-.683l-1.368-2.052h-.684l-.684-.684-3.419-2.737-5.47-2.736-1.368-.684v.684l-1.367-.684h-1.368v.684l-.684.684-1.367-1.368h-1.368l-.684-.684v.684l-.684-.684h-1.367l-.684.684v.684l-.684 1.368h-1.368l.684-.684.684-.684-.684-.684h-.684v-1.368h-.683l-.684.684-.684 1.368v-1.368l-.684.684v-.684h-.684l-.683.684v-.684h-.684l-.684.684v-2.053l.684-.684v.684l.684.685h1.367l.684.684.684-.684v-.685l-.684-.684v-.684l-.684-.684-.684.684-.683-.684-.684-1.368-1.368-.684h-.684v1.368h-1.367v.684l1.367.684h-1.367l-.684.684v1.369l-.684-.685v-1.368l-.684-.684h-1.367v1.368l-.684.684-1.368-.684h-.684v1.369l.684 2.052h-1.367l-1.368 1.368v2.052h-.684l-1.367.684-.684.685h.684v1.368l-.684 2.052.684.684.683 2.737h.684l1.368.684.684 1.368.683.684 2.736 1.368.683.684-.683 1.368-1.368 2.053-.684 2.736 1.368 1.368.684 1.369 2.051 4.104 2.735 5.473h-.683v4.104h1.367l-.684.685v2.052l.684.684h1.368l.684.684-.684.684v2.052l-.684 2.737 1.368 1.368v1.368l-.684 1.368-.684 1.369 2.735 3.42 1.368.684 2.051 2.737.684 1.368-1.368 4.104-2.051 3.421-1.368 2.736-1.367 2.053-1.368 2.736-1.367.684-2.736 2.052v1.369l1.368-.685h1.368l-.684.685.684.684v.684l-1.368-.684v.684l1.368 1.368h1.367l.684.684h2.735l.684 1.368-.684.684-1.367-.684h-.684v.684l-2.052 2.053-1.367-.684-.684.684v1.368h-.684l-.684-.684h-.684l.684.684v1.368l.684.684.684.684v.684l-.684.684-.684 1.369v2.052l.684 1.368-.684.684-.684 1.368.684.685.684.684h.684l.684.684.684 1.368.683 1.368h-2.051v.684l-.684.684v.684l-.684 1.369h1.368v1.368l.684.684v1.368l.684 1.368.683.684.684 1.369-.684.684v1.368h.684l.684.684 1.368-.684 1.367 1.368 1.368-.684h1.367l.684 2.052 1.368-1.368 1.367-.684.684.684h.684l2.052.684v3.421l.683 1.368v1.368l1.368 1.368.684 1.368 1.367 2.053 1.368.684.684 2.052 2.051.684 2.052 2.053v.684l1.367.684-.683.684-1.368 2.052h-2.735l-1.368-1.368-.684.684v1.368l1.368 1.368v1.369l1.367 1.368v1.368h2.052v-1.368l.684-.684 2.735.684h2.735l1.368-.684h1.367l.684 2.736 1.368 2.052-.684 1.369 1.368 2.052 2.735-.684 1.368.684v1.368h.683v1.368l.684 2.053 2.735 2.052.684-1.368 1.368.684 1.367-.684h1.368l2.052-.684h.683l1.368 2.736 1.368 1.368.683 1.368.684-.684 2.052.684h1.367l.684.685h1.368l1.367.684h1.368l.684-.684.684 1.368.683.684v1.368l-.683 1.368h-1.368l-.684 2.053 1.368 1.368v1.368l-.684 2.052v1.368l-.684.685h-2.735l-1.368 2.052h-.683v2.736h1.367l1.368-.684h1.367v1.368l-2.735 1.368-1.368.685.684.684h.684l-.684.684h-3.419l.684 1.368.684.684.684-.684v.684h1.367v.684h-.683l-.684.684h-.684l-.684.684v.685l-1.368 1.368v1.368l.684.684v1.368h-1.367l-.684-.684h-1.368v.684l.684.684-.684.684-.684.684h2.052l1.367 1.369v.684l1.368 1.368h2.052l2.05 1.368 1.368.684 3.42 2.737.683 1.368h.684v.684l.684.684h.684v.684l.684.684h.683l.684 1.368h2.052l.683-.684 1.368 1.369v.684h1.368l1.367 2.052.684.684v2.052l.684 1.369-.684.684v.684h.684v.684h.684l.684-.684 1.367.684h.684l.684-.684h.684l2.051 2.052h.684l1.368-.684 2.735-.684h3.419l1.367 1.368-.683-.684v-.684l2.051-.684 2.735 1.368h2.052l2.051.684v-2.052l3.42-1.368-1.368-.685.683-2.052h1.368l2.735 2.052.684 1.369h2.735l.684-.684 1.368-.685 2.051-2.052h-.684l-2.735-2.052-2.051-2.737v-1.368l-.684-.684v-2.736h-.684v-.684h.684v-.684l.684-.685h-.684l-.684.685-1.367-.685v-2.052h-.684l-.684-.684h-1.368l-2.735-4.105.684-.684.684-.684v-2.052l.683-.684.684-1.368.684-.684v-1.369l.684-.684v-.684h.684l.684.684h.683v-.684l.684.684.684-.684h.684l.684-.684v-.684h1.367l.684.684.684-.684v-.684l-1.368-.684h2.735v-1.368h-3.419.684v-1.369l-1.367-.684-1.368.684-2.051-1.368v-.684h2.051l-2.051-3.42-2.736-2.053-2.735-2.052v.684l-2.051-1.368.683-.684-1.367-1.368-2.052-.684.684-2.053.684-3.42-.684-.684v-2.737l1.368-.684 1.367-2.052v-1.368l.684-.684 2.735 2.736.684.684 1.368.684h1.367v-1.368l.684-.684-1.367-4.105h3.419v-1.368l-1.368-1.368v-1.368l1.368-.684h.684l.683-1.369.684-.684h1.368v-2.052l1.367.684 1.368.684v.684l-.684.684.684.684.684-.684v-.684l.684-.684v.684l.683-.684v-.684h1.368l1.368-.684h.684l.683 1.368 1.368.684 2.051-.684h.684l.684.684h.684l1.367 1.368h1.368l.684 1.369 1.367 1.368h.684l.684.684v1.368h.684l.684-1.368v-1.368l1.367-.684.684 1.368h2.052l.683.684.684.684 1.368-.684v-2.052H-.24v-.684h.683l.684.684.684-.684H3.18l1.367 1.368v.684h1.368v-1.368h2.051l.684-.684 1.368.684.683.684v.684l-.683.684 1.367 1.368h1.368l.684.684h1.367l2.052 1.368h1.367l.684-1.368v-1.368l.684-.684 1.368.684h1.367l2.052-.684.683-.684v-4.105l-.683-.684H23.01l-.684-.684v-.684H20.96l-2.052-2.052H17.54v-.684l-.684-.685v-.684h.684v-1.368l.683-.684v-1.368h-.683v-1.368l1.367-2.053 1.368-1.368h2.735l.684-.684v-1.368h-1.368l-.684-.684h-.683l-.684.684h-2.052v-.684l.684-.684h1.368l-.684-.684H17.54l.683-.685-.683-1.368h2.051l.684-.684h.684l.683.684h1.368l.684.684.684-.684v-.684l.683-.684h.684l.684.684.684-.684v-.684l2.051-.684h1.368l1.368-.684h1.367v-.684l1.368-.684h1.367l.684-.684h1.368l.684-.685v-1.368l.684-.684h1.367v-.684l.684-.684.684.684h.684l.683-.684 1.368-.684 2.051-1.368.684-.684h1.368l.684-.685h2.051v-.684l-.684-.684h2.052v-1.368l.684-.684h1.367l1.368.684h1.367l1.368.684h1.368l1.367-.684h1.368l.684 1.368h.684l.683 1.368.684.685.684.684v2.736h-.684l.684.684.684.684 1.368-.684.683.684h.684v-.684h.684L71.56 279h.683v-.684l-.683-1.368h.683l2.052 1.368v2.053l.684 1.368h.684l.683-.684h-.683v-.684h1.367l2.052.684h.683l.684-.684h.684l-.684 1.368H78.4v1.368l.684.684h.683l.684-.684h1.368l2.051.684.684.684.684-.684v-1.368l.684-.684h1.367l.684-.684.684-.684.684-.685V279l1.367-1.368h.684l.684-.684h1.368l1.367-2.052.684.684v.684l-.684 1.368h-.684l.684.684 9.574 7.525 12.992 16.419h1.368l.683-.684v-2.053l.684-.684 1.368.684v1.368h1.368l.683.685h.684l.684-.685h.684l1.367.685 1.368-.685h.684l1.367-.684v-.684l-.683-.684v-.684h4.103l1.367.684 1.368 1.368.684 1.369.683 1.368h2.052l1.367.684h1.368l.684.684v2.736l.684.684h.684l1.367.685.684.684v-.684l.684-.685h4.103l.683-.684 1.368-.684h.684l-.684 1.368v.685h.684l1.367 1.368 1.368.684h.684l1.368.684h.683l.684-2.052.684-.684h2.735l.684-.685.684-.684 1.367-.684v-1.368l.684-1.368 1.368-.684v-.684l.684-.684h.684l.683-1.369.684-.684-.684-.684v-.684l.684-.684 2.052.684.683-.684.684-1.368.684-.684h5.469l.684-.684.684.684v.684l.684.684h2.735l.684-.684h1.368l.683.684v1.368l2.736 1.368.683.684 2.052.684.684-.684 1.367-.684 1.368 2.737h1.368l.683.684h2.736l.683.684h3.42l.683-1.368-.683-.684-1.368-.685v-4.104h-.684l-.684-.684.684-1.368v-4.105l1.368-1.368v-.684l.684-.684h1.367l.684-.685v-1.368l.684-.684h1.367l.684.684 1.368.684 1.367.684v.685l1.368.684h3.419l.684.684.684.684h1.367l.684.684h2.735v-2.052l.684.684v.684l.684.684v.684l.684.684.684 1.368v.684l.684.685h.683l1.368.684v.684l1.368.684 1.367.684h.684l.684-.684h1.367l.684-.684h2.052l.683-.684 1.368-.684h2.052l1.367-.685h1.368l1.367-.684 1.368.684h3.419l1.368 1.369 2.051.684h2.735l.684.684.684 1.368 1.368.684.683.684h.684l.684.684h3.419l2.052.684h4.786l.684-.684h1.368l.684.684h.683l.684-1.368 2.052-1.368h1.367l.684-.684h3.419l1.368-.684.683-1.368v-.684l.684-1.369 1.368-.684.684-.684.684-1.368.683-.684h1.368l1.368-.684h.683l1.368.684.684.684h.684l.683-.684.684.684h.684l1.368-.684v-.684h2.051l2.052.684.683.684h1.368v.684h2.051l.684.684h.684l2.735-2.736 1.368-.684h2.051l.684-.684v-2.053h-2.735v-3.42l-.684-.684v-.684l.684-.684v-2.737l-.684-.684v-.684l.684-1.368.684-.684v-1.369l.684-1.368.683-.684v-2.736l-.683-.684-.684-.684h-2.052l-1.367.684h-.684l-.684-.684v-1.369l.684-.684v-.684l.684-.684v-.684l.683-.684v-.684l.684-.684h3.419l.684-.684.684-.685h.684l.684-.684h3.419l.684-.684h.683v-.684h2.736l.683.684h1.368l.684.684v.684h2.051l.684.685.684.684h.684v-.684h2.735l.684.684h1.367v2.052h.684v.684l.684-.684h.684v2.052h1.367l.684.684v.684h.684l.684.685v2.736h1.367v2.052l1.368.684.684.684.684.685v.684h.683l.684.684.684.684v1.368h.684l.684.684v.684l1.367 1.368 2.052 1.369.684.684v1.368l.683.684v1.368l.684.684h.684v1.368l.684 1.369 1.367 1.368h.684l.684.684h4.103l.684-.684h.684l-.684.684h2.735l.684.684.684.684v-.684h1.367v-.684h.684l-2.735-2.052v.684l.684.684h.683v.684l.684.684.684.684v.684l1.368.684h.684l.683.684h2.052l.684-.684h1.367v.684l-.684.685v1.368h.684v2.736l1.368 1.368h.684l.683 1.369v.684h.684l.684-.684h.684l.684.684v.684h.683l.684-.684h2.736l.683-.684h.684v-1.369l.684-.684v-1.368h2.051v-1.368h1.368v-.684l.684-.684h.684l.683-.684.684.684.684.684h.684v.684l.684.684-.684.684v.684l.684.684v.684l.684.684.683.685v2.736h-.683l-.684.684v.684l.684.684v2.053h.683v2.052h-.683v1.368l.683 1.368v1.368l-.683.685v.684l.683.684v1.368l-.683-2.052v1.368l-.684.684-.684 1.368v4.105l-.684.684h-.684v1.368l-.684.684v2.052l-.683.685.683.684.684-.684h-.684l-.683-.685-1.368-.684-.684-.684v-2.052l-.684-.684v-2.052l.684-.685h-1.367l-.684 1.369v.684l-.684.684h-.684v2.052l.684.684 1.368 2.053v.684l.683.684.684.684v5.473l.684.684v4.104h-2.051l-.684.684v1.369h.684v1.368l.683.684h.684l.684-1.368h1.368l.683.684.684-2.053.684-.684v-2.052l.684-.684v-1.368l1.368.684 1.367-.684.684.684v2.052l1.368.684 1.367 1.368.684-.684.684.684 1.367-1.368h1.368v-.684h.684l.684-1.368 2.051-2.052v-.684l1.368-.684v-1.369l-.684-1.368h.684l1.367-2.052-.683-.684h.683v-1.368l.684-.685v-1.368l1.368-.684v-.684l-.684-.684v-1.368l.684-.684.684-4.789 1.367-1.368v-.684l1.368-.684v-1.369l1.368-1.368v-1.368h-.684l-.684-1.368 1.368-1.368-.684-2.737.684-1.368v-.684h-.684l.684-2.052v-1.369l.683-.684v-3.42l.684-1.368v-1.369l1.368-1.368v-1.368l-.684-.684v-1.368l.684-.684v-1.369h-.684l-.684-2.736v-.684l1.368-1.368v-2.053l-1.368-1.368h-.684l-.683-.684.683-.684.684-1.368v-.684l-.684.684h-.683l-1.368-3.421v-3.42l.684-.684-.684-2.737.684-.684-.684-.684v-1.368l-.684-.684.684-1.368-.684-.684v-.685l.684-.684-.684-.684v-1.368l.684-.684v-.684l-.684.684h-.684l-1.367-.684v-1.368l.683-.684v-.685l-1.367-2.052h-.684l-1.368-1.368.684-.684v-.684l.684-.684-.684-1.369h-.684l-.683-.684h-.684v-.684l-2.052-.684-.683-.684h-1.368l-.684-.684-.684-1.368-.684-.684h-1.367l-1.368-.684-1.367.684h-1.368l-.684.684h-.684l-.683-.684v-.684l-.684-.685h-1.368l.684 2.053.684.684-.684.684.684 2.052-.684 1.368-.684.685v-2.737l-.684-1.368v2.736l-1.367.684-2.052.685v-.685l.684-.684h.684v-1.368l.684-.684.683-.684h-1.367l-.684.684-.684-.684h-.684l-.683 1.368-.684.684-1.368.684-1.367-1.368v-1.368l-.684-1.368-1.368-1.368v-2.737h-2.051l-.684.684h-.684l-1.368.684h-1.367l-.684-.684-1.368.684-.683-.684-.684-.684.684-.684v-1.368l1.367-1.368v-.684l1.368-1.369v-2.052l2.735-2.052v-1.368h.684v-.684l.684-1.369v-1.368l.683-1.368-.683-1.368.683-.684v-2.053l.684-2.736h.684v-2.052l.684-.684v-1.369l1.368-2.052v-1.368h1.367l-.684-2.052.684-.685v-1.368l.684-.684h.684v-1.368l-.684-.684v-3.421l.684-1.368 1.367-2.052.684-2.052-1.367-2.053v-1.368l.683-.684v-1.368l2.052-1.368v-1.369h.684l.683.685h1.368l2.052-1.369h1.367l1.368-.684h1.367l1.368-.684h1.368l.683-.684.684.684-.684 1.368h.684l.684.684.684-1.368.684-.684-1.368-1.368v-.684l2.052.684h2.051l.684-.684h2.051l.684.684h2.051v-.684l.684-.684h2.052l.684.684 2.051-.684v-.684l-.684-.684-.684.684-1.367-.684.684-1.369v.684l1.367-.684-1.367-.684v-.684h.683l2.052-1.368h1.367l.684.684.684-.684 2.051.684h1.368v.684l.684.684h.684l-.684-.684h3.419l.684.684v.684h1.367l.684-.684h.684v.684l-2.051 1.369h-1.368l-.684.684v1.368h-.684v.684h1.368l1.368 2.052.683-.684 1.368-.684.684-.684v-.684l1.367-.684-.683-1.368h.683l1.368 1.368h.684l.684-.684-.684-.684.684-.685.683-.684v-1.368h.684l.684.684.684-.684.684.684v.684l.684.684 1.367-1.368-.684-.684v-.684l.684-.684h4.103v-.684l-.684-.684v-1.368l-1.367-.685-.684-.684v.684h-.684l-.684-.684v.684h-.684l-.683.685-.684-.685v-.684h.684l-1.368-2.052.684-.684-1.368-.684.684-2.052v-1.369l.684-.684v-1.368l1.367-1.368v-1.368l1.368-.684-1.368-1.369.684-3.42.684-.684-1.368-1.368v-1.369l-.683-.684v-.684l.683-.684v-1.368l.684-.684 1.368-2.053h1.367l.684-.684h.684l.684-.684h2.051v-.684h.684v-1.368h.684l.684-.684h1.367v.684l.684-.684h.684l.684 1.368h.684l.683-1.368v-1.368h.684v-1.368h.684v.684l1.368.684v2.052l.683.684.684.684-.684.684h.684v2.737l-.684.684v.684l.684.684.684-.684.684.684h1.368v2.052l.683-.684v-.684l.684-.684h.684l.684.684-.684 1.368.684.684.684 1.369.683-1.369.684-.684v-.684l.684-.684v-2.736l.684-.684-.684-.685.684-.684v-.684h-.684v-.684h.684v-1.368l-.684-.684.684-1.368.684-.684h1.367l.684.684.684.684.684-.684-.684-.684v-1.369l-1.368-.684-.684-2.052h-3.419v-.684l-.683-.684v-1.368l.683-.684v-1.369l-1.367-.684v-.684l-1.368-.684 1.368-1.368h1.367l.684-1.368h1.368l.684-.684 1.367 1.368h4.103l-1.368.684.684.684-1.367 1.368h-1.368l-1.368 1.368v.684l.684 1.369v1.368l.684.684v.684l1.368 1.368v1.368l1.367.685v2.052l-.684.684v2.736h.684l.684-.684h.684l.684 1.368.684.684-.684 1.369v2.052l.684.684.683-.684h.684v1.368h-.684l-.683.684-1.368 1.368v.685l-1.368.684v.684h-.684v1.368h-2.051l.684 1.368h.684v1.368l-.684 1.369v.684h.684l-.684 2.052.684 2.052-.684.684-1.368.684v1.369l.684.684v2.052l-.684.684v.684l.684.684h-.684v2.053l.684.684v1.368l-.684.684.684 1.368v2.053l.684 2.052-1.368 3.42.684 1.369h-2.735v2.736l-1.368 1.368-2.051-.684-1.368.684v.684h1.368l2.051 2.737v2.736l-.684.684.684.684h-.684v2.052l-1.367 1.369v2.052l.684 2.052.683 3.421 1.368 2.052v2.052l2.051 5.473 2.736 5.473 2.735 4.789 1.368 1.368v1.368l4.102 4.105 4.103 7.525 2.052.684h1.367l-.684.684h-.683l1.367 2.052 2.052 4.789v2.052l1.367 1.368h2.052v4.105l1.367-2.736.684-2.053v-1.368l1.368-1.368v-1.368l.684-.684.683-2.053-.683-.684v-1.368l.683-.684-.683-.684h-1.368l.684-.684-.684-1.369h.684l.684-.684-1.368-1.368v-2.052h-1.368l-.683-.684.683-1.368 1.368.684 1.368-1.368h.683l.684-.685.684-.684.684.684h1.368l-.684-1.368-1.368.684v-1.368l-1.368-.684-.683-3.42.683-2.737-.683-.684.683-.684v-1.368l.684-2.053-.684-.684h.684l2.052-1.368v.684l3.419-1.368v-1.368l.684-.684-1.368-.684-2.051-2.737h-.684l-2.736-4.104v-.684l-.683-.685v-4.788l-.684-1.368.684-1.369v-1.368h-1.368v-.684l.684-1.368h1.367l-.683-.684.683-.684v2.052l-.683 1.368v1.368l1.367.684 1.368.685h.684v-1.369l.684-.684-.684-1.368-1.368-2.052v-2.737l-1.368-.684v.684l-.683.684v.685l-.684.684-1.368-.684v-2.053l-.684-1.368-.683-2.052.683-.684h.684v-.684l.684-.684-.684-.685v-1.368l-1.367-2.052h-.684l-2.052-1.368h-1.367l-.684.684v.684l1.368 1.368v.684l-.684.684-1.368-.684-.684-2.052-.684-.684-1.367-.684.684-.684-.684-2.053v-2.052l-.684-.684.684-.684-.684-1.368.684-.684v-3.421h-.684l-1.368-.684v-.684h.684l1.368.684v-.684l-.684-.684-.684-.684.684-.684h.684v-.685l-.684-.684-1.368-.684v-.684h.684v-1.368l-.684-1.368v-1.368l.684-.685-.684-1.368v-.684h.684l1.368.684h.684l.683-1.368h.684l.684.684h.684l.684 1.368 1.367-2.052-1.367-.684v-1.368l.684-.684 1.367-2.053v-1.368l.684 1.368.684.684v1.369l1.367 3.42.684.684.684-.684.684-2.736.684-.684v-1.369l.683-.684-.683-1.368 1.367.684.684-.684.684-2.052h1.368l1.367-1.368h1.368l.684.684 2.051-1.368h1.368l2.735 1.368v.684h2.051l-.683.684 1.367 2.052.684-.684.684.684h2.051v-.684l-4.103-2.736.684-.684v-.684h-.684v-.685l.684-.684.684-2.736.684-2.052v-.684l1.367-1.369-.683-.684.683-.684-.683-2.052-.684-.684v-.684h1.367l.684-1.368-1.367-.685-.684-.684h.684l.683.684h.684v-.684l-.684-.684 1.368-.684v-.684l-.684-.684.684-.684h.684l.684-.684v-.684l-.684-.684h.684l1.367-1.369-.684-.684v-1.368l1.368-1.368-.684-1.368v-1.369h.684l.684-.684 1.368-2.052h-.684v-.684h.684l2.051-1.368-.684-.684.684-.684h1.368l1.367-1.369-.684-.684v-.684l.684.684v.684h.684l.684-.684 1.367.684h4.103l.684.684h.684l-.684-1.368-1.368-.684v-.684h.684v-3.42l-1.367-2.053h-1.368l-1.368-2.052.684-.684-1.367-1.368-2.736-.684-2.735-1.369-.684-1.368v.684h-1.367v1.368l-1.368.685-.684-.684v-1.369l1.368-.684-.684-1.368v-.684h.684l.684.684-2.052-3.42-1.367-1.369v2.053h-.684l-2.052-2.053v-.684h1.368l-.684-.684-2.735-2.052h-.684v.684l1.368 1.368h-1.368l-1.367-1.368-1.368-.684-1.368-2.053v-.684l-.684-.684h-.683l-2.052 2.737v.684h-.684l-.683.684v2.052l.683.684-1.367-1.368-.684-2.052.684-1.368-1.368-.684v-1.369h1.368l.684.684 1.367-.684v-1.368L509.2 75.14l-.684 1.368h-1.367l-1.368-.684h1.368l.683-1.368h.684l.684.684h1.368l1.367.684 1.368 1.368h1.367l.684.684h.684l1.368-.684.684.684 2.735-2.052v1.368l.684-.684 1.367-2.052v-2.052l-.684-2.737.684-3.42v-2.053l-.684-1.368-.683-1.368-1.368-1.368-.684-1.368h.684l-1.368-.684-1.367.684-2.052-.684-2.735-3.421-.684-.684v-.684h1.368l.684-1.368-.684-.684h-1.368v-.685l.684-.684-.684-.684 1.368 1.368 1.367.684v-.684l-.683-.684v-.684l-.684-.684.684-.684.683.684.684.684.684.684.684 2.737v.684l2.735 2.052.684-.684 1.368.684v2.052h.683l2.052-2.736.684-1.368-.684-1.368v-3.422l1.367.684v1.368h.684l.684-.684 2.052-.684v-1.368l2.051.684v1.368l2.735 2.053h.684l.684 1.368v.684h.684l2.051-.684h.684v.684l.684-.684-.684-.684h.684v-1.368h.683l.684.684v.684h1.368l.684-.684h2.735l.684.684h.684v.684h.683l.684-.684-.684-2.053h.684l1.368 2.053 1.367-.684v-.684l-1.367-2.737zM30.532 153.81v-.684h.684l.684.684v.684l-.684.684h-.684v-1.368zm-2.735-1.368h1.367v.684h-.683l-.684.684-.684-.684-.684-.684v-.684l1.368.684zm-158.644 19.155h.683v.684l1.368.684v.684l-1.368.684v-.684l-.683-.684v-1.368zm-1.368 45.834l1.368.685.683 1.368v.684l-.683-.684-1.368-.684h-.684l-.684-.684 1.368-.685zm-7.522-41.73h2.051l2.052-.684v-.684l.684-.684-.684-1.368v-.684h.684l-.684-.684h1.367v-.684l.684.684v2.052l-.684.684v1.368h-1.367v1.369l-.684.684-1.368-.684h-2.051v-.685zm3.419 19.155h-.684v-.684h-.684l-1.367-1.368v-.684l-.684-.684-1.368-.684-2.051-.685-.684-.684v-1.368h.684l.684-.684.684.684v.684l.683.684v1.369l1.368 1.368.684.684h.684l.683-1.368h.684v.684l.684.684h.684l.684.684-1.368 1.368h2.051l.684.684h-2.051l-.684-.684zm7.522 64.99h-1.368v.684h-.683l-1.368-.684.684-1.369v-.684l.684-.684v1.368h1.367l.684 1.369zm2.735-20.523v.684l-.684-.684h-.683v2.052l-.684.684-.684.684-.684-.684h-1.367v2.736h-2.052l-1.368.684.684-.684v-1.368l-1.367-1.368-.684-1.368-.684-1.368-.684-.685h-.684v-2.736l-.683-.684v-1.368h-2.052 1.368l.684-.684v-1.368h.683l.684-1.369v-2.052l-.684-.684v-.684h.684v.684l.684 1.368.684 1.368h1.367l.684.684.684 1.369 1.368.684-.684.684h1.368l.683.684v.684l1.368-1.368.684 1.368v.684l.684.684v.684l1.367 2.053zm.684-23.944l-1.368.684h-1.367l-.684-1.368v-.684h.684l.684.684h1.367v.684h.684zm2.051-3.42v-.684l-.683-.685h-.684l.684-.684v-.684h.683l.684-.684h.684l.684.684v1.368l1.368.685v.684h-.684v.684h1.367l1.368.684h-1.368l-.683-.684h-.684v.684l.684.684-.684.684v.684s-.684-.684 0-.684l-.684-1.368h-1.368l-.684-1.368zm10.941 22.575l-.683.684h-1.368l-1.368-.684h-2.051l-.684-.684v-.684h.684l1.368.684h.683l.684.684h.684v-2.052l-.684-.684-.684-.685v-.684l-2.051-.684-.684-1.368-.684-.684v-.684l-1.367-1.368-.684-.684h1.368l-.684-.685-.684-.684 1.368.684-.684-.684-1.368-.684-.684-.684.684-.684 1.368.684.684.684.683 1.368.684.685.684.684v-.684l-.684-.685 1.368.685h.684v-.685l-.684-2.052-1.368-.684h-.684l-.683-1.368-.684.684-.684-1.368-.684-.684v-.684l.684.684h.684l1.367.684.684.684h.684l.684.684h.684l1.367 2.052v2.737l.684 1.368v.684l.684.684.684.684.683.684h.684v.684l.684.684v2.737l-1.368.684zm15.044 2.736l.684.684v1.369s-.684.684-.684 0v-2.053zm-2.051 12.998v.684h-.684l.684-.684zm-6.154-8.893l.683-.684v-.684h1.368l1.368.684v1.368l.683.684h-2.735l-1.367-1.368zm10.257 15.734v1.368h-.684v1.369h-1.368v-1.369l-.684-.684h-.683l-3.419-2.736-1.368-.684h-.684l.684-.684.684.684h2.051l.684.684v.684l.684-.684-.684-.684-.684-.684h-2.051v-.684l.684-.685-.684-1.368.684-.684h.683l-.683.684v.684l1.367.684 3.42 2.053.683.684 1.368.684.684.684-.684.684zm2.051-8.893l-2.051-1.368-.684-1.369v-.684l.684.684 1.367.685 1.368 1.368-.684.684zm16.412 104.667l-.684.684v.684h-.684v.684l-.684.684-.684-.684-1.367-.684h2.051l.684-.684 2.052-1.368-.684.684zm4.786-83.46l-.683-.684v-.684l-.684-2.053-.684-.684v-1.368l-.684-.684h-4.787l-.683.684h-.684l-.684-.684h-1.368l-.684-1.368-.683-.684h-1.368l-2.051.684v.684l.683-.684 1.368-.684.684-.684.684-.684.683.684.684-.684v1.368l-.684.684v-.684l1.368.684.684.684.684.684h6.838l.684-.684h.683v-.684l1.368-.684-.684.684v1.368l-.683 1.368v1.368l.683 1.369.684.684v.684l-.684.684zm10.258 58.832h.683l-.684.685-.683.684v.684l-.684 1.368-.684.684.684.684h-.684l-.684.684v2.737l-.684-.684h-.683l-1.368.684-1.368.684v-.684l1.368-2.053v-1.368l.684-.684.684.684v1.368h.683l.684-1.368v-1.368l.684-.684h.684v-1.368l-.684-.684v-.685l.684.685h.684v-2.053h1.367l.684-.684v-.684h.684l.684 1.368v1.368h-1.368v.685l-1.367-.685zm2.735-55.412H-61.1l-.684.685h-1.367l-2.052.684h-.683l-.684-.684-.684-.685h-.684 2.736l.684-.684h1.368l.684-.684h2.735l1.368-.684v-.684h2.735l1.367.684h4.103l1.368.684.684.684h.684l2.051.684h.684l1.367.685.684 1.368v.684l-.684-.684-.683-.684h-2.736l-2.051.684-.684-.684-.684-.684-.684-.685h-3.419l-1.367-.684-1.368-.684h-.684l-2.051.684.684.684zm19.146 21.892h-.683l-.684.684h-.684v1.368l-.684.684h-.684v.684l-.683.684v3.421h-.684l-.684.684h-1.368l-.684.684-.683.684-.684 1.368-.684.684h-1.368l-1.367 1.368-.684.685v.684h-.684v.684l.684.684.684.684v2.052l-.684.684-.684.684v1.369h.684l.684.684v.684l.684.684h-.684l-.684.684-.684.684v5.473l-2.051-.684v2.736h-1.368l-.684.684v-.684l.684-1.368v-2.052l.684-.684 1.368-1.369v-5.472l1.367-1.369.684-.684v-.684h-1.368v-.684l.684-1.368.684-.684v-.684l-.684-.684-.684-.684v-1.369l.684-.684v-.684l.684-1.368 1.368-1.368.683-.684h.684l.684-.684 1.368-1.369h1.367l.684-1.368v-1.368l.684-1.368.684-.684.684-1.369v-1.368l1.367-.684 2.735 2.737zm4.103-17.103h-1.367l-.684.684h-.684l-.684-.684V279h-1.367v.684h-1.368v1.369l.684 1.368v2.052h-.684l-.684.684v.684l.684.684v.684h.684l.684.685v.684h.683l.684-.684.684-1.369h.684v6.157h1.368l.683.684h1.368-2.735l-.684-.684-.684-.684v-2.052l-3.419-1.368-.684-.684-1.367-.685v-3.42l.683-.684h.684V279l.684-.684h.684v-.684h.684l.683-.684h.684l.684.684h1.368v-.684l.684.684h.683zm16.412-6.841l-1.368 1.368-.684.684.684.685h.684l.684.684h-2.735l-.684.684h-.684l-.684-.684h-2.051l1.367-.684h2.736l1.367-.685h.684l.684-2.052-.684-.684-.684-.684h-.684v-2.052l.684.684h.684l.684.684h.684v.684l-.684 1.368zm2.051-9.577v.684l-.684 1.368h-1.367v.684l-.684.684v.684l-1.368.684v-1.368l.684-.684.684-.684.684-.684h.684v-.684l1.367-.684zm7.522-8.209h-1.367v2.052h-.684l-.684-.684-1.368-1.368v-2.053l-1.367-2.052h-1.368l-.684.684v-.684l.684-.684.684-1.368v-.684h-.684l.684-.685v-1.368l.684-1.368.683-.684-.683-1.368v-1.368l-.684-1.369.684.684.683.685.684 1.368.684 1.368-.684.684h-.684l-.683.684v.684l1.367.684.684.684-.684.685v2.052l.684 1.368v.684l.684.684.684.684h.684l1.367 1.369zm27.353-121.77l-.684 1.368h-2.052l-.683-1.368v-.684h.683l.684-.684h1.368l.684-.684 1.367-.684h.684v.684l-2.051 2.052zm2.051 2.052l-1.368-.684v-.684h.684l.684.684v.684zm80.69 140.241h-2.052l-.683-.685h-4.103v-.684l.683-1.368h.684v.684l.684.684.684-.684v-.684l1.368-1.368h.683v.684h-.683v1.368l.683-1.368.684-.684h.684v.684l-.684.684-.684.684.684.684h1.368v1.369zm1.367-3.421h-.683v-.684h.683v.684zm5.471-4.789h-.684v-1.368l1.368-.684.684.684-1.368 1.368zm6.838-205.913h-.684v-.684l-.684-.684v-.685l.684-.684.684.684.684.684-.684 1.369zm10.257 210.702l-2.051 2.052-.684 2.053-1.368.684-.684 1.368-.683 1.368-.684.684V279v-1.368l.684-.684.683-1.368.684-1.368.684-.684.684-.685 1.368-1.368v-1.368l-.684-2.052v-.684l.684-.684.683.684.684 2.736zm2.735-218.912l-1.367-.684v-.684h.684l.683 1.369zm4.103-11.63l-.684 1.369-1.367 1.368-.684.684h-1.368l-.683.684-.684.684h-.684l.684.685v.684h-.684l-.684-.684v.684l-.684.684h-1.367v.684l-.684.684v.684l.684.684v.684l-.684-.684h-1.368l-.684.684v.684h.684l1.368 1.369v1.368l-.684.684-1.368-.684-.683-.684h-1.368v-.684h-.684l-.684.684v.684h.684l.684.684.684 1.368 1.367.684.684.684.684 1.368h.684l.684.685v.684h-.684l-1.368.684h-.684v-2.052l-2.051-2.053-2.051-2.052-1.368-.684h-.684l-1.367.684-.684.684v-.684l-1.368-.684-.684-.684h2.052l.684-1.368v-2.053l-.684-.684-.684-2.052-1.368-.684-.683-.684.683-.684v-.685h-2.051v-.684h1.368l1.367.684.684 1.369-.684.684.684.684h1.368l.683.684 1.368.684.684.684h1.367l.684.684 1.368-.684 1.367-1.368 2.052-.684 1.368-1.368h.683V43.67l.684-.684h.684l.684-.684v-1.368l-.684.684-1.368.684v-.684l-1.367-2.052v-1.368l-.684-.684h-.684v-.685l.684-.684h2.051l.684.684.684 1.369.684 1.368.684.684h1.367l1.368-.684h2.051zm6.838 9.578h-.683l-1.368-1.368h-.684l.684-1.368 1.368-.684 1.367.684v1.368l-.684 1.368zm2.736-4.788l-1.368-2.053h-2.735l-.684-.684.684-.684 1.367-.684.684.684.684.684h.684l.684.684.683.684-.683 1.369zm38.293 247.643l-.684-.684h-2.051v-.684l-1.368-.684v-2.052l.684-1.369v-.684l-.684-.684h-4.786l-1.368-1.368v-1.368l.684-.684v.684l.684.684.683.684h.684l1.368.684.684-.684h.683l.684.684.684 1.368v.684l-.684.684.684 1.369 1.368 1.368 2.735.684-.684 1.368zm41.029-119.033l1.367-.684h2.052l.684.684.683 2.052h.684l1.368 1.369v1.368l-.684.684.684.684h1.368l.683-.684-.683-.684.683-.684.684-1.369.684-.684.684.684.684 2.737h.683l.684-.684v-.684l.684-.684h1.368l-1.368 1.368-.684 1.368v.684l-.684.684h-1.367l-.684-2.052-.684-1.368v.684l-.684.684v1.368l.684.684h.684l.684 1.368v2.737l.684 1.368.683 1.368v1.368l.684.684v.684l-.684.685h-2.051l-1.368-.685-1.367-.684h-.684l-.684-.684h-.684l.684-.684 1.368.684 1.367.684 2.052.684.684-.684-.684-1.368v-.684l-1.368-2.052-.684-2.052v-.685l.684-3.42-1.367-.684h-2.736l-.684-.684v-2.053h-.683v.685l-.684-.685-.684-2.052-1.368-.684h-1.367zm34.19 93.722l-.683-1.369v-1.368l-.684-.684-.684 1.368v1.368l-.684 1.369v.684l.684-.684.684-.684h.684l1.367.684v.684l-.684.684h-2.051l-.684.684-.684 2.052-1.367 2.053h-.684l-.684 1.368-.684.684-1.367 1.368v.684h-2.052l-.684.684V279l.684.684v1.369l-.684 1.368-.683 1.368-1.368.684h-.684l-1.368.684h-.683l-2.052.684h-2.051l-.684-.684v-.684l1.368-.684.683-.684h.684l.684-.684v-.684h-2.051l-.684.684h-.684v-.684l.684-.684-.684-.684-1.368-1.369-.683-.684h-.684l-.684-1.368-.684-.684-.684-1.368-.683-.684h-1.368l-.684-.684-.684-2.053-.684-1.368-2.051-2.736-.684-1.369v-2.736l-.684-2.736v-1.369l-.683-.684-.684-.684-.684-3.42-.684-1.368v-1.369l-.684-.684-2.735-4.104-.684-.684h-1.367l-1.368.684v2.052l.684.684h.684l.683.684h.684l.684.684v.684l.684.684v.685l-.684.684v4.788h-1.368v.684h-.683v2.053-.684h1.367v-4.105l.684-1.368-.684-.684v-.684l-.684-.684h-.683l-.684.684-.684.684h-.684v2.052h-2.051l-.684.684v.684h-.684l-.684-.684.684-.684h2.052v-.684l1.367-1.368h2.052v-.684h-.684l-1.368-1.369v-1.368l-.684-.684h-.683l-1.368-.684.684-.684v-2.736l-.684-2.053v-.684l-1.368-1.368-1.367-.684-.684-.684.684-1.368 2.051-.685 1.368-.684v-.684l-.684-.684v-2.052l-.684-.684v-1.368l-1.367-2.737v-4.104l-.684-1.369v-.684l-.684-.684-1.368-1.368v-.684l.684.684 2.052 2.052.683 1.369v4.104l.684 2.052 1.368 1.369 2.051 1.368h.684v-1.368 2.736h.684l.684.684 1.367.684v-1.368l.684-.684.684.684v.684l-.684.684.684.684h-1.368l-.684-.684-.683-.684-1.368-.684-.684-.684-1.367-1.368h-.684l-.684.684v2.052l.684.684v1.368l-.684.684-2.051 2.053v1.368l2.051.684 1.368 1.368.683 1.368.684.685 1.368-.685v-.684l.684-.684.683.684h1.368l.684 1.369 1.368 2.736 2.051 2.736.684.684v.685l.684 3.42.683 1.368.684.684.684.684v3.421l.684 1.368 1.367 1.368h-.683l-.684-.684v.684l.684 1.369.683 1.368 1.368 1.368.684 2.052.684 2.053.684.684.683.684.684.684v.684l.684.684.684.684.684.684.683.684 1.368 1.369.684.684 2.051 1.368.684.684.684.684h1.367l.684-1.368.684-1.368V279l.684-.684 1.368-2.052.683-1.368.684-.684v-.684l-.684-.685v-.684l1.368-1.368v-1.368l.684-1.368v-.684l.684-.684v-.685l1.367-2.052v-.684l.684-.684v-2.052l.684-3.421v-3.42l-.684-2.053-1.368-1.368v-.684l.684-.684.684-.684h1.368l.683.684v.684l.684.684v1.368l.684 2.053v1.368l.684 2.052v1.368l.684 1.369v.684l.684.684.683.684v1.368l-.683 1.368.683 1.368v1.369-.684zm93.682-23.26h-.683l-1.368.684-.684 1.368h-1.367l-.684.685v.684l.684.684.683.684v.684l-.683.684v.684l-.684-.684-.684-.684h.684v-.684l-2.052-1.368v-.684h-.683l-.684-.685h.684l1.367.685.684-.685.684-1.368.684.684.683-.684 1.368-.684h.684l1.367-.684h1.368l-1.368.684zm67.014 19.155l1.368-.684 1.367-.684h.684l-.684.684-1.367.684-.684.684h-.684v-.684zm-4.103-4.789l.684-.684h.684l-.684.684v1.368l-.684-.684v-.684zm-10.941 23.944v-.684h.684l.684-.684h.684l-1.368 1.368-.684.684v1.368l-.684.684v-.684l.684-2.052zm-2.735-15.05v1.368h-.684v-.684l-.684-1.369v-.684l1.368 1.369zm-2.052-6.157l.684-.684v2.052l-1.367-.684.683-.684z" fill="#006FCD"/></svg>