<svg width="924" height="579" fill="none" xmlns="http://www.w3.org/2000/svg"><path opacity=".1" d="M921.56 80.304h-1.147l-2.293-1.147 1.146-1.147 1.147 1.147 1.147-1.147v-2.295h-2.294l-1.146-1.147-1.147 1.147v1.147l-1.147-1.147h-2.293v-2.294l-1.147-1.147h-1.147v1.147l-1.146-1.147v-1.148l2.293-1.147v-2.294h-1.147l2.294-1.147-1.147-2.295v-1.147l-2.293-2.294h-2.294l-2.293 2.294v-2.294l1.146-1.148-1.146-2.294v-1.147h-1.147l-1.147 1.147-1.146-1.147-1.147-1.147h-2.294l2.294-1.148h2.293l2.294-2.294 1.146 1.147 1.147-3.441h2.294v-1.148l-1.147-1.147-4.587-1.147h5.734l1.146-1.147-1.146-2.295-2.294-1.147-1.147-2.294h-1.146v-1.147l1.146-2.295-1.146-4.589v-1.147l1.146-1.147v-1.147l-2.293-1.147-2.293 2.294-1.147 1.147v-2.294h-1.147v1.147h-1.147v-3.442l-5.733-1.147v3.442h-2.293l-1.147-1.147v-1.148h-2.294l-1.146-1.147h-1.147l-3.44 1.147h-3.441l-1.146 1.148h2.293l-1.147 1.147-2.293 1.147h-1.147l1.147 1.147 1.147 1.147v1.148h-2.294l-1.146-3.442v-1.147h-1.147l-2.293 3.441 1.146 4.59-2.293 1.146v1.148l2.293-2.295h1.147l1.147 2.295 1.146 1.147 3.44 2.294v2.295l-1.146 1.147v1.147h2.293l2.294-1.147 1.146 1.147v1.147l1.147 3.442v1.147l-1.147-1.147-1.146-2.295h-1.147l-1.147 1.148v1.147l1.147 1.147v1.147h-1.147l-1.147-2.294h-2.293l-2.293 1.147-1.147-1.147v-3.442l1.147-1.147-1.147-2.294-1.147-1.148v-2.294l-3.44-1.147-2.293-5.736-2.294-2.295v-1.147l-1.146-1.147h-1.147v2.294h-1.147l-1.147-1.147-3.44-2.294h-4.587v1.147l1.147 1.147 3.44 1.147-2.293 1.148-3.44-1.148-1.147-1.147V28.68l-1.147-1.147h-2.293l2.293 1.147v1.147l-2.293 1.147-1.147-2.294v-1.147h-4.587v1.147h-1.147l-1.146-1.147h-2.294l1.147 1.147-8.027-1.147-2.294 1.147-3.44-1.147v-1.147l-2.293-1.148v1.148l-1.147-1.148h-1.147l-1.146-1.147h-1.147v1.147h-4.587l-1.147 1.148h-2.293l-5.734-1.148v-1.147l3.441 1.147 1.146 1.148v-1.148l-4.587-3.441-5.733-1.147-2.294 1.147-1.146-1.147 1.146-1.148-1.146-1.147h-2.294l-2.293-1.147-5.734-2.294h-3.44l-1.147 1.147h-1.146l-1.147-1.147-1.147 1.147h-3.44l-1.147-1.147h-4.587l-1.146 1.147v1.147l-1.147-1.147-6.88 2.294v2.295l-1.147-1.148-2.293 4.59h-1.147l-1.147-1.148h-2.293v1.147h-1.147l-1.147 1.147-2.293-1.147h-2.294v1.147h-9.173l-1.147-1.147-4.587 1.147 2.293 2.295 1.147 3.441 1.147 1.148v2.294l1.147 2.294 1.146 1.148v2.294h1.147l1.147-1.147 3.44 1.147 1.147 1.147h1.146l3.441 3.442 1.146 2.294 2.294 1.147 2.293 2.295v2.294l-1.147 1.147 1.147 1.148-1.147 1.147h-1.146l-2.294 1.147v1.147h-2.293l-1.147 1.147h-3.44l-1.147-1.147v-2.294l-3.44-4.589h-2.293l-4.587-1.147h-2.294l-1.146-1.147h-2.294v-2.295l-1.147-1.147h-2.293v-1.147l-1.147-2.295-2.293-1.147-1.147 1.147v5.736l-2.293 3.442-1.147 1.147-1.147-1.147v-1.147h-1.146l-1.147 1.147h-3.44l-3.441 1.147h-1.146l-2.294 2.295h-3.44l-2.293-1.148h-1.147l-1.147 1.148v1.147l-3.44 1.147-1.147 1.147h-3.44l-2.293 2.295v8.03l3.44 4.589v2.294l-2.293-3.441-2.294-2.295h-1.147l-2.293-1.147v1.147l2.293 1.147 1.147 2.295v1.147l-2.293-3.442h-1.147v-3.441l-3.44-2.295-1.147-2.294h-1.147l1.147 2.294v1.148l-1.147-2.295-2.293-1.147h-2.293v1.147l-1.147-1.147h-2.294l-2.293 2.294h-2.293l1.146-2.294v-1.147l-3.44-1.147v-2.295l-1.147-1.147v-1.147l-1.146-3.442-3.44-3.441-4.587-2.295-3.441-3.441-9.173-3.442h-6.881l-3.44 2.294v1.148h-2.293l-3.44 1.147-6.881 2.294-2.293 1.147-3.44 3.442-2.294 1.147-3.44 3.442-2.293 1.147-2.294 2.294-1.146-1.147-2.294-1.147-4.587 1.147-2.293 1.147 2.293-2.294 3.44-2.294v-1.148l-2.293-3.441-4.587-1.147-4.587-2.295h-2.293l-2.294 3.442v2.294l-1.146-1.147h-1.147l-1.147 2.294-1.146 1.148v-1.148l1.146-2.294 1.147-1.147-1.147-2.295-2.293-1.147-2.294 2.295v1.147l-1.146 2.294V49.33l-2.294-2.295-1.147-2.294-2.293 2.294h-4.587l1.147-1.147v-3.442l-1.147-2.294 3.44 2.294 1.147-1.147v-2.294l-2.293-3.442-5.734-2.294-4.587-1.147-5.733 1.147-4.587 1.147-3.441 2.294 1.147 9.178v2.294l1.147 1.148-2.294 2.294v2.294l-2.293 3.442h-1.147l-1.146-1.147v-1.147l-2.294-1.148 1.147-1.147h1.147l1.146-2.294v-3.442l-2.293-1.147-1.147-3.442h1.147l2.293-1.147v2.295l2.294 1.147 1.146 3.441v-5.736l-1.146-3.441-5.734 2.294-4.587 3.442v2.294l-2.293 2.295-2.293-1.148v-1.147l1.146-1.147-2.293-2.294 1.147-3.442 2.293 1.147h1.147l2.293 1.147 5.734-2.294 2.293-1.147h-18.347l-1.147 1.147-10.321 1.147h-5.733l-3.44 1.147-3.44-2.294h-3.441l-2.293 1.147 2.293 2.295h3.441l1.146 1.147h1.147l2.293 2.294v1.147l-3.44 3.442h-2.293l-3.44 1.147v2.295l-1.147 1.147 2.293 3.441 3.441 1.148v-2.295l2.293-2.294 3.44-1.147-1.147 3.441h-3.44l1.147 2.295 1.147 1.147-2.294 1.147h2.294l2.293-1.147 1.147 1.147v2.294l2.293 2.295h2.294l2.293 3.441v1.148l-1.147-1.148-2.293 1.148 1.147 2.294-1.147 1.147-1.147-1.147h-1.146l-1.147-2.294-2.294-2.295h-1.146l1.146 1.147-1.146 1.148-1.147-1.148-5.734 3.442 1.147 2.294v2.295h2.294l2.293-1.147 1.147 1.147-1.147 2.294 2.293 1.147-1.146 1.148-2.294-1.148v1.148l2.294 1.147h-3.44l-1.147-2.295h-3.44l-1.147-1.147h-2.293l-2.294-2.294H470.9l-2.294-1.147h-2.293l-5.734 2.294v1.147l-1.147 1.147 1.147 1.148v1.147l1.147 2.294-2.294-1.147-1.146 1.147-1.147-1.147-6.88 1.147h-3.441l-2.293-2.294h-2.293l-2.294-2.295-1.146-2.294-1.147-1.147v1.147l1.147 3.442v4.588l2.293 5.736 2.293 4.59 2.294 9.177v2.294h-1.147l-1.147-1.147v-1.147l-2.293-3.442-1.147 1.147 1.147 1.148-1.147 1.147-2.293-1.147-3.44-2.295h-4.587l-2.294-2.294-1.146-1.147-5.734-5.736h-1.147l-1.146 1.147h-1.147l-1.147-1.147 3.44-3.442h1.147l-1.147-1.147-2.293-1.147-2.294-2.295v1.147l1.147 1.148v2.294l-2.293 1.147h-1.147l-3.44-2.294-1.147-1.147h-3.44l-1.147-2.295-1.147-1.147h3.441l3.44 1.147 1.147 1.147 2.293-1.147 1.147-2.294v-1.147l-1.147 1.147v-1.147h-1.147l1.147-2.295-2.293-2.294-1.147 1.147v-1.147l-1.147-1.147-1.147 1.147-1.146 1.147h-3.441V78.01l3.441-3.442v-1.147h-1.147l-2.294 2.294v-2.294l1.147-1.147-1.147-2.295h-1.146l-1.147 1.147V69.98h-1.147l-1.146-1.147-1.147-1.147 1.147-2.295-1.147-1.147-1.147 1.147-1.147 2.295-1.146-3.442-1.147-1.147-1.147 1.147h-1.146l-1.147-5.736-1.147 1.147h-1.147v1.148-3.442h-2.293l-2.293 1.147-1.147-1.147-2.294 1.147h-1.146v1.147l1.146 1.148 1.147 2.294h-2.293v1.147h-3.44l1.146-1.147 1.147-1.147-2.293-3.442h-1.147v1.147l-1.147 1.148-1.147-1.148h-1.146l-1.147-2.294v1.147h-3.44l-1.147-1.147v1.147l-1.147 1.147-3.44-1.147h-1.146v2.295l-2.294 1.147h-1.147v-1.147l-1.146 1.147v2.294l1.146 1.147v2.295h1.147v2.294h2.294l1.146 1.147v2.295l1.147 1.147v1.147l-1.147 2.295h-1.146l-1.147-1.148-2.294 1.148h-2.293l1.147 1.147-1.147 2.294h-3.44l-3.44 2.295-5.734 1.147-2.293-1.147h-13.761l-2.293-2.295-1.147-3.441 1.147-2.295h1.146v-1.147l-2.293-1.147h-2.294l-5.733 2.294h-6.881l-5.733 1.147-3.44 1.148-1.147 1.147h-1.147l-1.146 1.147-2.294 1.147-2.293 2.295 1.146 2.294h1.147l1.147-1.147h1.147l-1.147 1.147h-1.147l-1.147 2.294v1.148l-1.146-1.148v-3.441l-2.294-2.295v-3.441h-1.146l-3.441-3.442h-1.146v1.147l2.293 3.442v2.294l-1.147 1.148-3.44 1.147-1.146 1.147h-2.294l-4.587-3.442v-2.294l1.147-1.147V78.01l-2.294 1.147v2.294l-1.146 1.147-4.587-3.441h-2.294l-2.293 1.147v3.442l-1.147 2.294 1.147 2.294 2.293 1.148 2.294-2.295V86.04l3.44-2.294 1.147 1.147v2.294l-3.44 2.295 1.146 1.147-1.146 2.294h-2.294l-2.293-1.147v1.147l1.146 2.295-1.146 2.294-2.294 2.294 1.147 1.148-1.147 1.147h-1.146l-2.294 2.294h-6.88l-1.147 2.295 1.147 2.294 3.44 3.442h-2.293l-1.147 1.147v1.147l-1.147 1.147-1.147 2.295h-1.146l-1.147 1.147v-1.147l1.147-1.148 1.146-4.588-1.146-1.148v-1.147l1.146-1.147v-4.589l1.147-2.294 2.294-1.147 1.146-1.148-1.146-3.441v-1.147l1.146-1.148h2.294v-1.147l1.146-3.441v-1.148l-1.146-3.441 1.146-4.589 1.147-2.294 1.147-3.442-1.147-2.294-1.147 1.147h-1.146l-2.294-1.147h2.294l2.293-2.295 1.147-1.147 1.147-2.294V65.39l1.146-1.147 1.147-3.441v-1.148l1.147-2.294 2.293-1.147v-1.147l-1.147-1.148v-1.147l1.147-2.294V49.33l1.147-1.148h1.147l1.146-3.441v-3.442l-1.146-3.441-1.147-2.295V33.27h-2.294l-1.146-1.147-1.147-1.148-1.147 2.295-1.146 1.147-1.147-1.147-3.44 1.147V33.27h-2.294l-1.146-1.147h2.293l3.44 1.147 1.147 1.147 1.147-1.147h1.146l1.147 1.147v1.147h1.147v-1.147l-1.147-2.294v-1.148l-1.147-2.294-1.146-1.147h-1.147l-1.147 1.147h-1.147v-2.294l-2.293-2.295v-2.294l-1.147-1.147-1.146-1.148h-1.147l-1.147 1.148v1.147h1.147l1.147 1.147v1.147h-2.294v1.147h-1.147l-3.44-3.441V20.65l-1.146-1.148h-1.147l-6.88-3.441-2.294-1.147h-3.44v-1.148l1.147-1.147v-1.147h-2.294l-1.147-1.147h-2.293l-1.147 2.294h-2.293l-1.147 2.295h-3.44l-2.293 2.294-3.441 1.147h-1.146l-1.147-1.147h-1.147l-1.146 1.147v2.295h2.293l1.147 2.294v3.442l-1.147 2.294h-2.293l-2.294 2.294-3.44 1.148h-1.147l1.147-1.148h1.147V28.68l-1.147-4.589 1.147-2.294V20.65l1.146-1.148-1.146-2.294v-3.442l-2.294-2.294-1.147 1.147-1.146-1.147h-1.147v2.294h-2.293l-1.147-1.147-2.293 1.147-1.147 2.295h-1.147v-1.147l1.147-2.295v-1.147h-1.147l-3.44 4.589-4.587 1.147h-1.147l1.147-2.294h2.293l2.294-3.442V9.178l1.147-1.148V5.736l-2.294-1.147-1.147-1.147V1.147h-1.146l-2.294 2.295h-2.293l-1.147-2.295h-1.147l-1.146 1.147L167.019 0h-1.146l-2.294 2.294v1.148h-1.147l1.147 2.294-1.147 1.147v3.442l-2.293 2.294-2.293 2.295v8.03l2.293 2.294v2.295h-1.147v2.294l1.147 2.295h2.293l2.294 2.294h2.293l-2.293 1.147 1.147 2.295v1.147h3.44l2.293-1.147 2.294 1.147h2.293l1.147 1.147-1.147 1.147h-5.734l-4.586 1.147-1.147-1.147-2.294 1.147h-3.44l-1.146 1.148h-3.441l-1.146 1.147v1.147l2.293 1.147v1.147h2.294l1.146 1.148 2.294-1.148 1.146 2.295 2.294 1.147 2.293 3.442-1.146 3.441-2.294 1.147 1.147-4.588-1.147-1.148v-2.294h-3.44v-1.147h-1.147l-1.146 1.147h-2.294l-2.293 2.294 2.293 1.148-1.147 1.147h-2.293l1.147 1.147v1.147l-2.294 2.295v-2.295h-3.44l1.147 2.295-1.147 1.147h-1.147v-2.295l-1.146-1.147v2.295l-1.147 2.294-1.147 2.294-2.293-1.147v-1.147l2.293-4.589-1.147-1.147h-2.293l-4.587 1.147-2.293-1.147-2.294 2.294h-1.146l-2.294-1.147h-2.293l2.293 2.295-1.147 1.147h-1.146v-1.147h-1.147l-1.147 1.147-1.146 1.147v3.442l1.146 1.147 2.294-2.295 1.146 1.148 3.441-2.295h1.146v2.295l-5.733 2.294-1.147 2.294-2.293 1.148-3.441 1.147v1.147l1.147 1.147-3.44 1.147-2.293-1.147h-1.147v1.147h-1.147l-2.293 1.148-1.147 1.147 1.147 1.147h-1.147v1.147h-1.147l-1.147-1.147h-1.146l-1.147 2.294v1.148l-1.147 1.147v5.736l-2.293 1.147h-3.44l-1.147 1.147v2.295h1.147l1.147-1.148 4.586 1.148-1.146 1.147h-2.294v1.147l1.147 1.147v3.442l-1.147 1.147v2.294l-2.293-2.294h-1.147l-2.293-2.294h-1.147v1.147l1.147 1.147v1.147l-2.294 1.147 1.147 2.295 2.293-1.147 2.294 1.147h2.293v1.147l2.294 1.147h2.293l1.147 1.147h-4.587l-1.147-1.147H97.07v1.147l-1.147 1.148 2.293 2.294 1.147-1.147h3.44l1.147 2.294 1.146 1.147 1.147-1.147h2.294v1.147l2.293 2.295h2.294l1.146 2.294-1.146 3.442-3.441 2.294-1.146 2.295v1.147l3.44 3.441 2.293 1.148h-3.44l-3.44-3.442v-2.294l1.147-3.442 1.146-1.147v-1.147l1.147-2.295-1.147-1.147-5.733 2.294-3.44 1.148-2.294 3.441-2.293 1.147-2.294-1.147h-2.293l-2.294 2.295-6.88 2.294-4.587 1.147h-2.293l-2.294 2.295h-2.293l-1.147 1.147 2.294 1.147v4.589l1.146 1.147h1.147v1.147l-1.147 1.147 3.44 2.295 2.294 4.589v3.441l1.147 1.147h1.146v2.295l2.294 1.147h8.027l2.293-1.147v2.294l1.147 1.147v2.295l2.294 1.147 1.146 2.294h4.587l3.44 2.295h1.147l2.293 2.294v4.589l1.147 2.294v2.295l2.294 2.294 2.293 1.147 2.293 4.589 1.147 4.589 2.294 2.294 1.146 2.295-2.293 3.441h-2.294l1.147 2.295h3.44l2.294 1.147 3.44 3.442 3.44 1.147h1.147l3.44-2.295h3.44l3.44 2.295 2.294 1.147h1.146l1.147 2.294v3.442l-1.147-3.442-1.146-2.294h-2.294l-6.88-2.294h-2.294l-2.293 2.294v3.442l-3.44-3.442h-3.44l-2.294-1.147v-2.295l-1.146-2.294-2.294-1.147h-2.293l-3.44-2.295 1.146-1.147v-2.294l1.147-1.147v-5.736l-2.293-1.148-1.147-1.147-1.147 2.295h-1.147v2.294l-1.146 1.147v3.442h-1.147l-1.147-5.736 1.147-1.147v-2.295l-3.44-2.294v-3.442h-1.147v-2.294l2.293-1.147v-6.884h-3.44v-2.294l-3.44 2.294-4.587 1.148h-2.293l-3.44-3.442-2.294-1.147v-2.295h-6.88l-2.293-1.147-2.294-2.294h-5.734l-2.293-1.147-2.293 1.147-2.294 3.441v2.295l-1.147 1.147-1.146-1.147v1.147l1.146 1.147 3.44-2.294 3.44 1.147 1.147 3.442-1.146 3.441H64.96l-4.587-1.147-2.293-2.294h-1.147l-2.293 2.294-1.147 1.147h-1.147l2.294 4.589h1.147v1.147l3.44 2.295h3.44l1.147 1.147h4.587l1.146-1.147h1.147v1.147h3.44l1.147 2.294h1.147v2.295h3.44l-3.44 3.441-2.294-1.147h-1.147l-2.293-2.294h-1.147l-2.293-1.148H64.96l-1.146 2.295-1.147-1.147-1.147-1.148-1.147 1.148h-4.586l-2.294-1.148H51.2l-1.147-1.147 1.147-1.147v-1.147l-1.147-1.147v-2.295l-2.293-2.294-1.147-2.295 1.147-2.294-1.147-2.294v-3.442l-2.294-2.294v-2.295l-1.146-1.147h-1.147v-2.294l-2.293-2.295H37.44l3.44 6.883 1.147 4.589-1.147 3.442-3.44 3.441-2.293 2.295v1.147l1.146 1.147v2.295l-1.146 3.441v2.295l3.44 2.294 4.587 3.442 1.146 2.294h2.294l2.293 2.294 1.147 3.442v8.03l2.293 3.442v3.442l1.147 2.294 3.44 3.442v4.588l1.147 1.148 2.293 1.147 2.294-1.147 3.44 1.147 1.147-1.147 1.147-2.295 2.293-2.294 2.293 1.147h1.147l3.44 2.294 2.294-1.147 1.146 2.295 4.587 2.294h3.44l2.294 2.294v1.148l2.293 1.147 1.147 1.147v1.147l1.147 1.147-1.147 1.148h-2.293v3.441l1.146 2.295 1.147 1.147v2.294l1.147 1.147h2.293l1.147 1.148h2.293l1.147-2.295 1.147 1.147h3.44l-1.147 1.148-1.147 1.147h-5.733l-2.293-1.147h-2.294l-1.147-2.295 1.147-1.147v-2.294l-1.147-2.295v-2.294l-1.146-1.147v-2.295l-2.294-2.294h-1.147l-1.146-1.147-3.44-1.148v-2.294l-2.294-2.294H79.87l-3.44 3.441h-2.294l-1.147 2.295-5.733 3.441v5.736l1.147 1.147 3.44 2.295 2.293 6.883v1.147l-2.293 4.589v3.442l1.146 2.294-1.146 4.589v1.147l-2.294 2.294v1.148l-1.147 1.147-1.146 1.147v2.294l1.147 1.148v2.294l-4.587 1.147h-3.44l-1.147-1.147h-6.88l-2.294-1.147-6.88-1.147-2.294-2.295-1.146-2.294H37.44l-1.147 1.147-1.146-1.147H34l1.147-2.295h2.293l4.587-1.147 1.147-1.147 4.587 2.294h1.146v-1.147h2.294v1.147l-2.294 1.148 1.147 1.147h3.44l1.147-2.295 2.293-1.147v-1.147l-1.146 2.294v-1.147l2.293 1.147 1.147-1.147v-3.441l2.293-1.148v-1.147h-1.147v-1.147l2.294-1.147v-3.442l-1.147-1.147 1.147-1.147v-1.147l1.147-1.148v-2.294l-2.294-2.294-1.147-3.442v-4.589h1.147v-1.147l-2.293-2.294H58.08l-2.293-2.295-2.294-1.147-3.44-4.589-1.147-3.441-1.146-1.148 1.146-1.147-2.293-1.147-1.147-2.294 1.147-2.295-2.294-4.589v-2.294l-2.293-2.294v-2.295l-1.147-1.147-1.146-5.736-1.147-2.294-2.294-1.148-1.146-3.441L34 198.466h-1.147l-2.293-1.148-1.147-2.294-2.293-2.294-1.147-2.295 1.147-1.147v-1.147l-1.147-1.147v-1.148l2.293-1.147 1.147-4.589-1.147-2.294v-3.442l-1.146-1.147v-2.294l-1.147-2.295 1.147-1.147-1.147-1.147h-4.587l-5.733-2.294h-2.294l-1.147 1.147-1.146-1.147H9.919l-2.294 1.147H5.332l-2.293 1.147-1.147-1.147 1.147-1.147-1.147-1.148H.745v6.884l1.147 2.294-1.147 1.147-1.147 3.442 1.147 1.147v2.294l1.147 1.148-1.147 1.147v2.294l1.147 2.295-1.147 2.294v1.147l1.147 2.295v1.147l-2.294 2.294-3.44 4.589-1.146 1.147v1.147l1.146 2.295-1.146 1.147v3.442l2.293 2.294 1.147-1.147 1.146 1.147 1.147 3.442H3.04l1.146 1.147H3.04v4.589l2.293 2.294v2.294l-1.147 1.148-1.146-1.148v1.148l1.146 3.441 1.147 1.147 1.147 3.442 1.146-1.147 1.147 1.147h2.294l2.293 1.147 1.147-2.294 1.146 1.147v3.442l1.147 1.147h1.147l3.44 4.589h2.294l1.146-1.148h1.147v1.148h1.147l-1.147 1.147v5.736l1.147 2.294v1.147h-1.147v3.442H23.68l-1.147-4.589-2.294-2.294h-2.293l-1.147-2.295-2.293-1.147H9.919l-4.587-2.294h-3.44v-1.147H.745l-2.293-4.589-2.294 1.147-1.146 1.147-1.147-2.294 1.147-1.147v-1.148l-5.734-2.294-2.293-2.294h-9.174l-6.88 1.147h-3.441l-1.146-1.147h-2.294l-1.146 1.147 1.146 2.294v1.147l-2.293 1.148v1.147l1.147 2.294 1.146 1.147 1.147 3.442 1.147 1.147v-1.147h1.146l1.147 3.442v1.147h2.293l2.294 2.294h-2.294l-1.146-1.147h-1.147l-1.147 3.442-1.146 1.147-2.294-1.147-1.146 1.147v1.147l2.293 2.294 1.147 1.148v1.147l-1.147 1.147h-4.587l-1.147-1.147v-1.147l-1.146-2.295 1.146-1.147v-1.147l-3.44-3.442h-1.147l1.147-1.147v-1.147l-1.147 1.147h-1.146l-2.294 2.294h-1.146l-1.147 1.148v1.147h-2.294l-1.146 1.147v1.147l-1.147 1.147h-6.88l-1.147-1.147-2.294 1.147v1.148h-2.293l-2.293 2.294v1.147l1.146 1.147v3.442l-1.146-1.147-1.147-1.147h-1.147l-2.293 2.294-1.147 2.294v-2.294l-2.293-1.147-1.147 1.147h-3.44v-1.147l2.293-2.295h2.294l1.146-1.147-1.146-2.294v-1.147l1.146-1.148-2.293-2.294h-2.294l-1.146-1.147 3.44-1.147h1.147l2.293-1.148v-1.147h-3.44l-4.587 2.295-1.147 1.147 1.147 1.147v1.147l1.147 1.147-1.147 1.148h-1.147l-1.146-2.295 1.146-1.147h1.147v-1.147l-3.44 3.441v1.148l1.147 1.147h1.146v1.147l-2.293 2.294-1.147-1.147 1.147-1.147v-1.147H-88.7v-1.147l-3.44 1.147v1.147l-2.293 1.147h-3.441v1.147l-3.44 4.589h-1.146l-3.441 4.589-1.146 1.147-1.147-1.147h-1.147l1.147 2.294 2.293 2.295v1.147l-3.44-1.147-1.146 1.147-4.587 1.147-1.147 1.147 1.147 1.148v1.147l-1.147 2.294 1.147 2.295-1.147 2.294-3.44 1.147v1.147h-2.294l-1.146 1.148-1.147-2.295-2.294 1.147h-1.146l-3.44-4.588-3.441-3.442-5.733 1.147v-3.441h1.147l1.146-1.148v-1.147l1.147-1.147h2.293l1.147-1.147h3.44v-1.147l-2.293-2.295v-1.147h-2.294l-2.293-2.294v-1.148l-2.293-2.294h-8.027l-1.147 1.147h-2.294l-3.44-2.294h-2.293v1.147l4.587 3.442 2.293 2.294 1.147 3.442v2.294l1.147 1.147-1.147 1.147v2.295h-1.147v4.589l-1.147 2.294 1.147 2.294h2.294l2.293 1.148 1.147 1.147v4.589l1.146 1.147-1.146 1.147v4.589l-1.147 1.147 1.147 2.294v3.442l-1.147-1.147-1.147-2.295-2.293-1.147-2.294 2.295v-2.295l-1.146-1.147h-4.587l-2.294-1.147h-2.293l-1.147 1.147 1.147 1.147-3.44 2.295h-2.294l-1.146 1.147v2.294l-2.294 2.295-2.293 2.294v1.147l1.146 2.295 3.441 4.588 2.293 4.589-1.147 1.147h-1.146v2.295l-1.147 1.147-1.147 1.147-2.293-2.294-5.734-2.295h-2.293v-1.147h-3.44l-1.147-1.147-1.147-2.294h-2.293l-2.294-1.148h-2.293v3.442l1.147 1.147h-4.587l1.146 2.295v2.294l2.294 1.147 1.147 2.295 2.293 1.147 1.147-1.147h1.146l1.147-1.148v1.148l2.294 1.147v1.147l-1.147 1.147h3.44v2.295h-2.293l-2.294 2.294h-1.147l-1.146-1.147h-2.294l-1.146-1.147h-2.294l-1.147-1.148v-2.294l-1.146-1.147-1.147-1.147h-1.147l-1.147 1.147-3.44-1.147-1.146-1.148-1.147-1.147 1.147-1.147v-3.442l-3.441-1.147v-1.147l-2.293-2.294v-2.295h-1.147v-1.147h1.147v-4.589h-1.147v-1.147l1.147-1.147h-1.147l-2.293-2.295-4.587-1.147-1.147 1.147-1.146-1.147h-3.441l1.147-1.147h2.294l1.146-4.589h-2.293 1.147l-1.147-1.147-1.147 1.147h-3.44l1.147-1.147 2.293-1.147v-1.147l-2.293-1.148v-1.147l-2.294-1.147v-2.294l-2.293-1.148h3.441v1.148l3.44 3.441h1.147v-1.147l2.293 2.294h3.44v-1.147l1.147 1.147-1.147 1.148h1.147v1.147h2.294l1.146-1.147h4.587v1.147l2.294 2.294h2.293v1.147h5.734l2.293 1.148 3.44 1.147h10.321v-1.147h2.293l1.147-1.148h3.44l1.147-1.147 3.44-4.589v-1.147l2.293-2.294v-1.147l1.147-2.295v-6.883l-1.147-1.147h-1.146l-1.147-2.295-1.147-1.147-1.147-2.294-2.293-2.295h-1.147v1.148l-2.293-1.148v-1.147l-3.44-2.294v-1.147l-1.147-2.295h-1.147v1.147l1.147 2.295h-1.147l-2.293-2.295h-1.147l-2.293-1.147v1.147h-1.147l-2.293-3.441h-1.147l-1.147-1.147-5.734-4.589-9.173-4.589-2.294-1.147v1.147l-2.293-1.147h-2.294v1.147l-1.146 1.147-2.294-2.294h-2.293l-1.147-1.147v1.147l-1.147-1.147h-2.293l-1.147 1.147v1.147l-1.146 2.294h-2.294l1.147-1.147 1.147-1.147-1.147-1.147h-1.147v-2.295h-1.147l-1.146 1.148-1.147 2.294v-2.294l-1.147 1.147v-1.147h-1.146l-1.147 1.147v-1.147h-1.147l-1.147 1.147v-3.442l1.147-1.147v1.147l1.147 1.147h2.293l1.147 1.148 1.147-1.148v-1.147l-1.147-1.147v-1.147l-1.147-1.147-1.146 1.147-1.147-1.147-1.147-2.295-2.293-1.147h-1.147v2.294h-2.294v1.148l2.294 1.147h-2.294l-1.146 1.147v2.294l-1.147-1.147v-2.294l-1.147-1.147h-2.293v2.294l-1.147 1.147-2.293-1.147h-1.147v2.294l1.147 3.442h-2.294l-2.293 2.294v3.442h-1.147l-2.293 1.147-1.147 1.147h1.147v2.295l-1.147 3.441 1.147 1.148 1.146 4.588h1.147l2.294 1.148 1.146 2.294 1.147 1.147 4.587 2.295 1.147 1.147-1.147 2.294-2.294 3.442-1.146 4.589 2.293 2.294 1.147 2.294 3.44 6.884 4.587 9.177h-1.147v6.883h2.294l-1.147 1.148v3.441l1.147 1.147h2.293l1.147 1.148-1.147 1.147v3.441l-1.147 4.589 2.294 2.295v2.294l-1.147 2.294-1.147 2.295 4.587 5.736 2.294 1.147 3.44 4.589 1.147 2.294-2.294 6.883-3.44 5.736-2.293 4.589-2.294 3.442-2.293 4.589-2.294 1.147-4.587 3.441v2.295l2.294-1.147h2.293l-1.147 1.147 1.147 1.147v1.147l-2.293-1.147v1.147l2.293 2.295h2.294l1.146 1.147h4.587l1.147 2.294-1.147 1.147-2.293-1.147h-1.147v1.147l-3.44 3.442-2.294-1.147-1.146 1.147v2.294h-1.147l-1.147-1.147h-1.146l1.146 1.147v2.295l1.147 1.147 1.147 1.147v1.147l-1.147 1.148-1.147 2.294v3.442l1.147 2.294-1.147 1.147-1.146 2.295 1.146 1.147 1.147 1.147h1.147l1.146 1.147 1.147 2.295 1.147 2.294h-3.44v1.147l-1.147 1.147v1.148l-1.147 2.294h2.294v2.294l1.146 1.148v2.294l1.147 2.294 1.147 1.148 1.147 2.294-1.147 1.147v2.295h1.147l1.146 1.147 2.294-1.147 2.293 2.294 2.294-1.147h2.293l1.147 3.441 2.293-2.294 2.294-1.147 1.146 1.147h1.147l3.44 1.147v5.736l1.147 2.295v2.294l2.293 2.294 1.147 2.295 2.294 3.441 2.293 1.148 1.147 3.441 3.44 1.147 3.44 3.442v1.147l2.293 1.147-1.146 1.148-2.294 3.441h-4.587l-2.293-2.294-1.147 1.147v2.294l2.294 2.295v2.294l2.293 2.295v2.294h3.44v-2.294l1.147-1.148 4.587 1.148h4.587l2.293-1.148h2.294l1.146 4.589 2.294 3.442-1.147 2.294 2.294 3.442 4.586-1.147 2.294 1.147v2.294h1.147v2.295l1.146 3.441 4.587 3.442 1.147-2.295 2.293 1.148 2.294-1.148h2.293l3.44-1.147h1.147l2.294 4.589 2.293 2.294 1.147 2.295 1.146-1.147 3.441 1.147h2.293l1.147 1.147h2.293l2.294 1.147h2.293l1.147-1.147 1.146 2.294 1.147 1.148v2.294l-1.147 2.294h-2.293l-1.147 3.442 2.294 2.294v2.295l-1.147 3.441v2.295l-1.147 1.147h-4.587l-2.293 3.442h-1.147v4.588h2.294l2.293-1.147h2.294v2.295l-4.587 2.294-2.294 1.147 1.147 1.147h1.147l-1.147 1.148h-5.734l1.147 2.294 1.147 1.147 1.147-1.147v1.147h2.293v1.147h-1.147l-1.146 1.148h-1.147l-1.147 1.147v1.147l-2.293 2.294v2.295l1.146 1.147v2.294h-2.293l-1.147-1.147h-2.293v1.147l1.147 1.148-1.147 1.147-1.147 1.147h3.44l2.294 2.294v1.148l2.293 2.294h3.44l3.44 2.294 2.294 1.148 5.733 4.588 1.147 2.295h1.147v1.147l1.147 1.147h1.146v1.147l1.147 1.148h1.147l1.146 2.294h3.441l1.146-1.147 2.294 2.294v1.147h2.293l2.294 3.442 1.146 1.147v3.442l1.147 2.294-1.147 1.147v1.148h1.147v1.147h1.147l1.147-1.147 2.293 1.147h1.147l1.146-1.147h1.147l3.44 3.441h1.147l2.293-1.147 4.587-1.147h5.734l2.293 2.294-1.146-1.147v-1.147l3.44-1.147 4.587 2.294h3.44l3.44 1.147v-3.441l5.734-2.295-2.294-1.147 1.147-3.442h2.293l4.587 3.442 1.147 2.294h4.587l1.146-1.147 2.294-1.147 3.44-3.442h-1.147l-4.587-3.441-3.44-4.589v-2.294l-1.146-1.148v-4.588h-1.147v-1.148h1.147v-1.147l1.146-1.147h-1.146l-1.147 1.147-2.294-1.147v-3.442h-1.146l-1.147-1.147h-2.294l-4.586-6.883 1.146-1.147 1.147-1.147v-3.442l1.147-1.147 1.147-2.295 1.146-1.147v-2.294l1.147-1.147v-1.148h1.147l1.146 1.148h1.147v-1.148l1.147 1.148 1.147-1.148h1.146l1.147-1.147v-1.147h2.293l1.147 1.147 1.147-1.147v-1.147l-2.294-1.147h4.587v-2.295h-5.733 1.146v-2.294l-2.293-1.147-2.293 1.147-3.44-2.295v-1.147h3.44l-3.44-5.736-4.587-3.441-4.587-3.442v1.147l-3.44-2.294 1.146-1.147-2.293-2.295-3.44-1.147 1.146-3.442 1.147-5.736-1.147-1.147v-4.589l2.294-1.147 2.293-3.441v-2.295l1.147-1.147 4.587 4.589 1.147 1.147 2.293 1.147h2.293v-2.294l1.147-1.147-2.293-6.884h5.733v-2.294l-2.293-2.294v-2.295l2.293-1.147h1.147l1.147-2.294 1.146-1.148h2.294v-3.441l2.293 1.147 2.294 1.147v1.147l-1.147 1.148 1.147 1.147 1.146-1.147v-1.148l1.147-1.147v1.147l1.147-1.147v-1.147h2.293l2.294-1.147h1.147l1.146 2.294 2.294 1.147 3.44-1.147h1.146l1.147 1.147h1.147l2.293 2.295h2.294l1.146 2.294 2.294 2.295h1.147l1.146 1.147v2.294h1.147l1.147-2.294v-2.295l2.293-1.147 1.147 2.295h3.44l1.147 1.147 1.147 1.147 2.293-1.147v-3.442h2.293v-1.147H.745l1.147 1.147 1.147-1.147h2.293l2.293 2.294v1.148H9.92v-2.295h3.439l1.147-1.147 2.293 1.147 1.147 1.147v1.148l-1.147 1.147 2.294 2.294h2.293l1.147 1.147h2.293l3.44 2.295h2.294l1.146-2.295v-2.294l1.147-1.147 2.294 1.147h2.293l3.44-1.147 1.147-1.147v-6.884l-1.147-1.147h-2.293l-1.147-1.147v-1.147h-2.293l-3.44-3.442h-2.294v-1.147l-1.147-1.147v-1.147h1.147v-2.295l1.147-1.147v-2.294h-1.147v-2.295l2.293-3.441L34 488.707h4.587l1.147-1.147v-2.294H37.44l-1.147-1.148h-1.146L34 485.266h-3.44v-1.148l1.146-1.147H34l-1.147-1.147h-3.44l1.147-1.147-1.147-2.295h3.44L34 477.235h1.147l1.146 1.147h2.294l1.147 1.148 1.146-1.148v-1.147l1.147-1.147h1.147l1.146 1.147 1.147-1.147v-1.147l3.44-1.147h2.294l2.293-1.148h2.294v-1.147l2.293-1.147h2.293l1.147-1.147h2.294l1.146-1.147v-2.295l1.147-1.147h2.293v-1.147l1.147-1.147 1.147 1.147h1.147l1.146-1.147 2.294-1.148 3.44-2.294 1.147-1.147h2.293l1.147-1.147h3.44v-1.148l-1.147-1.147h3.44v-2.294l1.147-1.147h2.294l2.293 1.147h2.294l2.293 1.147h2.293l2.294-1.147h2.293l1.147 2.294h1.147l1.146 2.295 1.147 1.147 1.147 1.147v4.589h-1.147l1.147 1.147 1.147 1.147 2.293-1.147 1.147 1.147h1.146v-1.147h1.147l1.147 2.294h1.147v-1.147l-1.147-2.294h1.147l3.44 2.294v3.442l1.146 2.294h1.147l1.147-1.147h-1.147v-1.147h2.294l3.44 1.147h1.146l1.147-1.147h1.147l-1.147 2.294h-3.44v2.295l1.147 1.147h1.146l1.147-1.147h2.294l3.44 1.147 1.146 1.147 1.147-1.147v-2.295l1.147-1.147h2.293l1.147-1.147 1.147-1.147 1.147-1.147v-1.148l2.293-2.294h1.147l1.146-1.147h2.294l2.293-3.442 1.147 1.147v1.148l-1.147 2.294h-1.146l1.146 1.147 16.054 12.619 21.788 27.533h2.293l1.147-1.147v-3.442l1.147-1.147 2.293 1.147v2.295h2.294l1.146 1.147h1.147l1.147-1.147h1.147l2.293 1.147 2.293-1.147h1.147l2.294-1.147v-1.148l-1.147-1.147v-1.147h6.88l2.294 1.147 2.293 2.295 1.147 2.294 1.147 2.294h3.44l2.293 1.148h2.294l1.146 1.147v4.589l1.147 1.147h1.147l2.293 1.147 1.147 1.147v-1.147l1.147-1.147h6.88l1.147-1.147 2.293-1.148h1.147l-1.147 2.295v1.147h1.147l2.293 2.294 2.294 1.148h1.146l2.294 1.147h1.146l1.147-3.442 1.147-1.147h4.587l1.147-1.147 1.146-1.147 2.294-1.148v-2.294l1.146-2.294 2.294-1.148v-1.147l1.147-1.147h1.146l1.147-2.294 1.147-1.148-1.147-1.147v-1.147l1.147-1.147 3.44 1.147 1.147-1.147 1.146-2.295 1.147-1.147h9.174l1.146-1.147 1.147 1.147v1.147l1.147 1.148h4.587l1.147-1.148h2.293l1.147 1.148v2.294l4.587 2.294 1.146 1.148 3.44 1.147 1.147-1.147 2.294-1.148 2.293 4.589h2.293l1.147 1.147h4.587l1.147 1.148h5.733l1.147-2.295-1.147-1.147-2.293-1.147v-6.883h-1.147l-1.147-1.148 1.147-2.294v-6.883l2.294-2.295v-1.147l1.146-1.147h2.294l1.146-1.147v-2.295l1.147-1.147h2.294l1.146 1.147 2.294 1.148 2.293 1.147v1.147l2.294 1.147h5.733l1.147 1.147 1.147 1.148h2.293l1.147 1.147h4.587v-3.442l1.146 1.147v1.148l1.147 1.147v1.147l1.147 1.147 1.147 2.295v1.147l1.146 1.147h1.147l2.293 1.147v1.147l2.294 1.148 2.293 1.147h1.147l1.147-1.147h2.293l1.147-1.148h3.44l1.147-1.147 2.293-1.147h3.44l2.294-1.147h2.293l2.294-1.147 2.293 1.147h5.734l2.293 2.294 3.44 1.147h4.587l1.147 1.148 1.147 2.294 2.293 1.147 1.147 1.147h1.147l1.146 1.148h5.734l3.44 1.147h8.027l1.147-1.147h2.293l1.147 1.147h1.147l1.146-2.295 3.44-2.294h2.294l1.147-1.147h5.733l2.294-1.147 1.146-2.295v-1.147l1.147-2.294 2.294-1.148 1.146-1.147 1.147-2.294 1.147-1.147h2.293l2.294-1.148h1.146l2.294 1.148 1.146 1.147h1.147l1.147-1.147 1.147 1.147h1.146l2.294-1.147v-1.148h3.44l3.44 1.148 1.147 1.147h2.293v1.147h3.44l1.147 1.147h1.147l4.587-4.589 2.293-1.147h3.44l1.147-1.147v-3.442h-4.587v-5.736l-1.147-1.147v-1.147l1.147-1.147v-4.589l-1.147-1.147v-1.147l1.147-2.295 1.147-1.147v-2.294l1.146-2.295 1.147-1.147v-4.589l-1.147-1.147-1.146-1.147h-3.44l-2.294 1.147h-1.147l-1.146-1.147v-2.295l1.146-1.147v-1.147l1.147-1.147v-1.147l1.147-1.148v-1.147l1.147-1.147h5.733l1.147-1.147 1.147-1.147h1.146l1.147-1.148h5.734l1.146-1.147h1.147V430.2h4.587l1.147 1.147h2.293l1.147 1.147v1.148h3.44l1.147 1.147 1.146 1.147h1.147v-1.147h4.587l1.147 1.147h2.293v3.442h1.147v1.147l1.147-1.147h1.146v3.441h2.294l1.147 1.147v1.148h1.146l1.147 1.147v4.589h2.293v3.441l2.294 1.147 1.147 1.148 1.146 1.147v1.147h1.147l1.147 1.147 1.146 1.147v2.295h1.147l1.147 1.147v1.147l2.293 2.295 3.441 2.294 1.146 1.147v2.295l1.147 1.147v2.294l1.147 1.147h1.146v2.295l1.147 2.294 2.293 2.295h1.147l1.147 1.147h6.88l1.147-1.147h1.147l-1.147 1.147h4.587l1.147 1.147 1.146 1.147v-1.147h2.294v-1.147h1.146l-4.586-3.442v1.147l1.146 1.148h1.147v1.147l1.147 1.147 1.146 1.147v1.147l2.294 1.148h1.147l1.146 1.147h3.44l1.147-1.147h2.294v1.147l-1.147 1.147v2.294h1.147v4.589l2.293 2.295h1.147l1.146 2.294v1.147h1.147l1.147-1.147h1.147l1.146 1.147v1.147h1.147l1.147-1.147h4.587l1.146-1.147h1.147v-2.294l1.147-1.148v-2.294h3.44v-2.294h2.293v-1.148l1.147-1.147h1.147l1.147-1.147 1.146 1.147 1.147 1.147h1.147v1.148l1.146 1.147-1.146 1.147v1.147l1.146 1.147v1.148l1.147 1.147 1.147 1.147v4.589h-1.147l-1.147 1.147v1.147l1.147 1.147v3.442h1.147v3.442h-1.147v2.294l1.147 2.294v2.295l-1.147 1.147v1.147l1.147 1.147v2.295l-1.147-3.442v2.295l-1.147 1.147-1.146 2.294v6.883l-1.147 1.148h-1.147v2.294l-1.146 1.147v3.442l-1.147 1.147 1.147 1.147 1.146-1.147h-1.146l-1.147-1.147-2.294-1.147-1.146-1.148v-3.441l-1.147-1.147v-3.442l1.147-1.147h-2.294l-1.146 2.294v1.147l-1.147 1.148h-1.147v3.441l1.147 1.147 2.293 3.442v1.147l1.147 1.147 1.147 1.148v9.177l1.146 1.147v6.884h-3.44l-1.146 1.147v2.294h1.146v2.295l1.147 1.147h1.147l1.146-2.295h2.294l1.147 1.148 1.146-3.442 1.147-1.147v-3.442l1.147-1.147v-2.294l2.293 1.147 2.294-1.147 1.146 1.147v3.441l2.294 1.148 2.293 2.294 1.147-1.147 1.147 1.147 2.293-2.294h2.293v-1.148h1.147l1.147-2.294 3.44-3.442v-1.147l2.294-1.147v-2.294l-1.147-2.295h1.147l2.293-3.441-1.147-1.148h1.147v-2.294l1.147-1.147v-2.295l2.293-1.147v-1.147l-1.147-1.147v-2.295l1.147-1.147 1.147-8.03 2.293-2.295v-1.147l2.294-1.147v-2.294l2.293-2.295v-2.294h-1.147l-1.146-2.295 2.293-2.294-1.147-4.589 1.147-2.294v-1.147h-1.147l1.147-3.442v-2.294l1.147-1.148v-5.736l1.147-2.294v-2.294l2.293-2.295v-2.294l-1.147-1.147v-2.295l1.147-1.147v-2.294h-1.147l-1.146-4.589v-1.147l2.293-2.295v-3.441l-2.293-2.295h-1.147l-1.147-1.147 1.147-1.147 1.147-2.295v-1.147l-1.147 1.147h-1.147l-2.293-5.736v-5.736l1.146-1.147-1.146-4.589 1.146-1.147-1.146-1.147v-2.294l-1.147-1.148 1.147-2.294-1.147-1.147v-1.147l1.147-1.148-1.147-1.147v-2.294l1.147-1.147v-1.148l-1.147 1.148h-1.147l-2.293-1.148v-2.294l1.146-1.147v-1.147l-2.293-3.442h-1.147l-2.293-2.294 1.147-1.148v-1.147l1.146-1.147-1.146-2.294h-1.147l-1.147-1.148h-1.146v-1.147l-3.441-1.147-1.146-1.147h-2.294l-1.147-1.147-1.146-2.295-1.147-1.147h-2.293l-2.294-1.147-2.293 1.147h-2.294l-1.146 1.147h-1.147l-1.147-1.147v-1.147l-1.147-1.147h-2.293l1.147 3.441 1.146 1.147-1.146 1.148 1.146 3.441-1.146 2.295-1.147 1.147v-4.589l-1.147-2.294v4.588l-2.293 1.148-3.44 1.147v-1.147l1.146-1.148h1.147v-2.294l1.147-1.147 1.147-1.147h-2.294l-1.147 1.147-1.146-1.147h-1.147l-1.147 2.294-1.146 1.147-2.294 1.147-2.293-2.294v-2.294l-1.147-2.295-2.293-2.294v-4.589h-3.441l-1.146 1.147h-1.147l-2.294 1.147h-2.293l-1.147-1.147-2.293 1.147-1.147-1.147-1.147-1.147 1.147-1.147v-2.295l2.294-2.294v-1.147l2.293-2.295v-3.441l4.587-3.442v-2.294h1.147v-1.147l1.146-2.295v-2.294l1.147-2.295-1.147-2.294 1.147-1.147v-3.442l1.147-4.589h1.147v-3.441l1.146-1.147v-2.295l2.294-3.441v-2.295h2.293l-1.147-3.441 1.147-1.148v-2.294l1.147-1.147h1.147v-2.295l-1.147-1.147v-5.736l1.147-2.294 2.293-3.442 1.147-3.441-2.294-3.442v-2.294l1.147-1.148v-2.294l3.44-2.294v-2.295h1.147l1.147 1.147h2.293l3.44-2.294h2.294l2.293-1.147h2.293l2.294-1.147h2.293l1.147-1.148 1.147 1.148-1.147 2.294h1.147l1.146 1.147 1.147-2.294 1.147-1.147-2.294-2.295v-1.147l3.441 1.147h3.44l1.147-1.147h3.44l1.146 1.147h3.44v-1.147l1.147-1.147h3.44l1.147 1.147 3.44-1.147v-1.147l-1.146-1.148-1.147 1.148-2.294-1.148 1.147-2.294v1.147l2.294-1.147-2.294-1.147v-1.147h1.147l3.44-2.295h2.293l1.147 1.147 1.147-1.147 3.44 1.147h2.293v1.148l1.147 1.147h1.147l-1.147-1.147h5.734l1.146 1.147v1.147h2.294l1.147-1.147h1.146v1.147l-3.44 2.294h-2.293l-1.147 1.148v2.294h-1.147v1.147h2.294l2.293 3.442 1.147-1.147 2.293-1.148 1.147-1.147v-1.147l2.294-1.147-1.147-2.295h1.147l2.293 2.295h1.147l1.146-1.147-1.146-1.148 1.146-1.147 1.147-1.147v-2.294h1.147l1.147 1.147 1.146-1.147 1.147 1.147v1.147l1.147 1.147 2.293-2.294-1.147-1.147v-1.148l1.147-1.147h6.88V286.8l-1.146-1.147v-2.295l-2.294-1.147-1.146-1.147v1.147h-1.147l-1.147-1.147v1.147h-1.147l-1.146 1.147-1.147-1.147v-1.147h1.147l-2.294-3.442 1.147-1.147-2.293-1.147 1.146-3.442v-2.294l1.147-1.147v-2.295l2.293-2.294v-2.294l2.294-1.148-2.294-2.294 1.147-5.736 1.147-1.147-2.294-2.295v-2.294l-1.146-1.147v-1.147l1.146-1.148v-2.294l1.147-1.147 2.294-3.442h2.293l1.147-1.147h1.146l1.147-1.147h3.44v-1.147h1.147v-2.295h1.147l1.146-1.147h2.294v1.147l1.147-1.147h1.146l1.147 2.294h1.147l1.146-2.294v-2.294h1.147v-2.295h1.147v1.147l2.293 1.148v3.441l1.147 1.147 1.147 1.148-1.147 1.147h1.147v4.589l-1.147 1.147v1.147l1.147 1.147 1.147-1.147 1.146 1.147h2.294v3.442l1.146-1.147v-1.148l1.147-1.147h1.147l1.147 1.147-1.147 2.295 1.147 1.147 1.146 2.294 1.147-2.294 1.147-1.147v-1.147l1.146-1.148v-4.588l1.147-1.148-1.147-1.147 1.147-1.147v-1.147h-1.147v-1.147h1.147v-2.295l-1.147-1.147 1.147-2.294 1.147-1.148h2.293l1.147 1.148 1.147 1.147 1.146-1.147-1.146-1.148v-2.294l-2.294-1.147-1.146-3.442h-5.734v-1.147l-1.147-1.147v-2.295l1.147-1.147v-2.294l-2.293-1.147v-1.148l-2.294-1.147 2.294-2.294h2.293l1.147-2.295h2.293l1.147-1.147 2.293 2.295h6.881l-2.294 1.147 1.147 1.147-2.294 2.294h-2.293l-2.293 2.295v1.147l1.146 2.294v2.295l1.147 1.147v1.147l2.293 2.295v2.294l2.294 1.147v3.442l-1.147 1.147v4.589h1.147l1.147-1.147h1.146l1.147 2.294 1.147 1.147-1.147 2.295v3.441l1.147 1.147 1.146-1.147h1.147v2.295h-1.147l-1.146 1.147-2.294 2.294v1.147l-2.293 1.148v1.147h-1.147v2.294h-3.44l1.147 2.295h1.146v2.294l-1.146 2.294v1.148h1.146l-1.146 3.441 1.146 3.442-1.146 1.147-2.294 1.147v2.295l1.147 1.147v3.441l-1.147 1.148v1.147l1.147 1.147h-1.147v3.442l1.147 1.147v2.294l-1.147 1.147 1.147 2.295v3.441l1.147 3.442-2.294 5.736 1.147 2.294h-4.587v4.589l-2.293 2.295-3.44-1.148-2.294 1.148v1.147h2.294l3.44 4.589v4.588l-1.147 1.148 1.147 1.147h-1.147v3.441l-2.293 2.295v3.441l1.146 3.442 1.147 5.736 2.293 3.442v3.441l3.441 9.178 4.586 9.177 4.587 8.031 2.294 2.294v2.295l6.88 6.883 6.88 12.619 3.44 1.147h2.294l-1.147 1.147h-1.147l2.294 3.442 3.44 8.03v3.442l2.294 2.294h3.44v6.884l2.293-4.589 1.147-3.442v-2.294l2.293-2.295v-2.294l1.147-1.147 1.147-3.442-1.147-1.147v-2.294l1.147-1.148-1.147-1.147h-2.293l1.146-1.147-1.146-2.294h1.146l1.147-1.148-2.293-2.294v-3.442h-2.294l-1.147-1.147 1.147-2.294 2.294 1.147 2.293-2.294h1.147l1.146-1.148 1.147-1.147 1.147 1.147h2.293l-1.146-2.294-2.294 1.147v-2.294l-2.293-1.147-1.147-5.736 1.147-4.589-1.147-1.147 1.147-1.148v-2.294l1.146-3.442-1.146-1.147h1.146l3.441-2.294v1.147l5.733-2.294v-2.295l1.147-1.147-2.294-1.147-3.44-4.589h-1.146l-4.587-6.883v-1.147l-1.147-1.148v-8.03l-1.147-2.294 1.147-2.295v-2.294h-2.293v-1.147l1.146-2.295h2.294l-1.147-1.147 1.147-1.147v3.441l-1.147 2.295v2.294l2.293 1.147 2.294 1.148h1.147v-2.295l1.146-1.147-1.146-2.294-2.294-3.442v-4.589l-2.293-1.147v1.147l-1.147 1.147v1.148l-1.147 1.147-2.293-1.147v-3.442l-1.147-2.294-1.147-3.442 1.147-1.147h1.147v-1.147l1.147-1.148-1.147-1.147v-2.294l-2.294-3.442h-1.146l-3.44-2.294h-2.294l-1.147 1.147v1.147l2.294 2.295v1.147l-1.147 1.147-2.293-1.147-1.147-3.442-1.147-1.147-2.293-1.147 1.146-1.147-1.146-3.442v-3.442l-1.147-1.147 1.147-1.147-1.147-2.294 1.147-1.148v-5.736h-1.147l-2.293-1.147v-1.147h1.146l2.294 1.147v-1.147l-1.147-1.147-1.147-1.147 1.147-1.148h1.147v-1.147l-1.147-1.147-2.293-1.147v-1.147h1.146v-2.295l-1.146-2.294v-2.295l1.146-1.147-1.146-2.294v-1.147h1.146l2.294 1.147h1.146l1.147-2.295h1.147l1.147 1.148h1.146l1.147 2.294 2.294-3.442-2.294-1.147v-2.294l1.147-1.147 2.293-3.442v-2.294l1.147 2.294 1.147 1.147v2.295l2.293 5.736 1.147 1.147 1.147-1.147 1.146-4.589 1.147-1.147v-2.295l1.147-1.147-1.147-2.294 2.293 1.147 1.147-1.147 1.147-3.442h2.293l2.294-2.294h2.293l1.147 1.147 3.44-2.295h2.294l4.586 2.295v1.147h3.441l-1.147 1.147 2.293 3.442 1.147-1.147 1.147 1.147h3.44v-1.147l-6.88-4.589 1.146-1.147v-1.148h-1.146v-1.147l1.146-1.147 1.147-4.589 1.147-3.441v-1.148l2.293-2.294-1.147-1.147 1.147-1.147-1.147-3.442-1.146-1.147v-1.147h2.293l1.147-2.295-2.294-1.147-1.146-1.147h1.146l1.147 1.147h1.147v-1.147l-1.147-1.147 2.293-1.148v-1.147l-1.146-1.147 1.146-1.147h1.147l1.147-1.147v-1.148l-1.147-1.147h1.147l2.293-2.294-1.146-1.147v-2.295l2.293-2.294-1.147-2.295v-2.294h1.147l1.147-1.147 2.293-3.442h-1.146v-1.147h1.146l3.441-2.294-1.147-1.148 1.147-1.147h2.293l2.293-2.294-1.146-1.147v-1.148l1.146 1.148v1.147h1.147l1.147-1.147 2.293 1.147h6.88l1.147 1.147h1.147l-1.147-2.294-2.293-1.148v-1.147h1.146v-5.736l-2.293-3.441h-2.293l-2.294-3.442 1.147-1.147-2.294-2.295-4.586-1.147-4.587-2.294-1.147-2.295v1.148h-2.293v2.294l-2.294 1.147-1.147-1.147v-2.294l2.294-1.148-1.147-2.294v-1.147h1.147l1.147 1.147-3.441-5.736-2.293-2.294v3.441h-1.147l-3.44-3.441v-1.148h2.293l-1.146-1.147-4.587-3.441h-1.147v1.147l2.294 2.294h-2.294l-2.293-2.294-2.294-1.147-2.293-3.442v-1.147l-1.147-1.147h-1.146l-3.441 4.588v1.148h-1.146l-1.147 1.147v3.441l1.147 1.148-2.294-2.295-1.147-3.441 1.147-2.295-2.293-1.147v-2.294h2.293l1.147 1.147 2.293-1.147v-2.295l-4.587-2.294-1.146 2.294h-2.294l-2.293-1.147h2.293l1.147-2.294h1.147l1.146 1.147h2.294l2.293 1.147 2.294 2.294h2.293l1.147 1.148h1.147l2.293-1.148 1.147 1.148 4.587-3.442v2.294l1.146-1.147 2.294-3.441v-3.442l-1.147-4.589 1.147-5.736v-3.441l-1.147-2.295-1.147-2.294-2.293-2.295-1.147-2.294h1.147l-2.293-1.147-2.294 1.147-3.44-1.147-4.587-5.736-1.147-1.147v-1.148h2.294l1.147-2.294-1.147-1.147h-2.294v-1.147l1.147-1.148-1.147-1.147 2.294 2.295 2.293 1.147v-1.147l-1.146-1.148v-1.147l-1.147-1.147 1.147-1.147 1.146 1.147 1.147 1.147 1.147 1.147 1.146 4.59v1.146l4.587 3.442 1.147-1.147 2.293 1.147v3.442h1.147l3.44-4.59 1.147-2.294-1.147-2.294v-5.736l2.294 1.147v2.295h1.146l1.147-1.148 3.44-1.147v-2.294l3.441 1.147v2.294l4.586 3.442h1.147l1.147 2.294v1.148h1.146l3.441-1.148h1.146v1.148l1.147-1.148-1.147-1.147h1.147v-2.294h1.147l1.146 1.147v1.147h2.294l1.147-1.147h4.587l1.146 1.147h1.147v1.147h1.147l1.146-1.147-1.146-3.441h1.146l2.294 3.441 2.293-1.147v-1.147l-2.293-4.589zM51.2 256.973v-1.147h1.147l1.147 1.147v1.147l-1.147 1.147h-1.146v-2.294zm-4.586-2.295h2.293v1.148h-1.146l-1.147 1.147-1.147-1.147-1.147-1.148v-1.147l2.294 1.147zM-219.425 286.8h1.147v1.147l2.293 1.147v1.148l-2.293 1.147v-1.147l-1.147-1.148V286.8zm-2.293 76.862l2.293 1.148 1.147 2.294v1.147l-1.147-1.147-2.293-1.147h-1.147l-1.147-1.147 2.294-1.148zm-12.614-69.979h3.44l3.44-1.147v-1.147l1.147-1.147-1.147-2.295V286.8h1.147l-1.147-1.147h2.294v-1.147l1.146 1.147v3.441l-1.146 1.148v2.294h-2.294v2.294l-1.146 1.148-2.294-1.148h-3.44v-1.147zm5.734 32.122h-1.147v-1.147h-1.147l-2.293-2.295v-1.147l-1.147-1.147-2.293-1.147-3.441-1.148-1.146-1.147v-2.294h1.146l1.147-1.147 1.147 1.147v1.147l1.147 1.147v2.295l2.293 2.294 1.147 1.147h1.146l1.147-2.294h1.147v1.147l1.147 1.147h1.146l1.147 1.147-2.293 2.295h3.44l1.146 1.147h-3.44l-1.146-1.147zm12.613 108.984h-2.293v1.147h-1.147l-2.293-1.147 1.147-2.295v-1.147l1.146-1.147v2.294h2.294l1.146 2.295zm4.587-34.416v1.147l-1.146-1.147h-1.147v3.441l-1.147 1.148-1.147 1.147-1.146-1.147h-2.294v4.588h-3.44l-2.293 1.148 1.146-1.148v-2.294l-2.293-2.294-1.147-2.295-1.146-2.294-1.147-1.147h-1.147v-4.589l-1.147-1.147v-2.295h-3.44 2.294l1.146-1.147v-2.294h1.147l1.147-2.295v-3.441l-1.147-1.148v-1.147h1.147v1.147l1.147 2.295 1.146 2.294h2.294l1.146 1.147 1.147 2.295 2.294 1.147-1.147 1.147h2.293l1.147 1.147v1.148l2.293-2.295 1.147 2.295v1.147l1.147 1.147v1.147l2.293 3.442zm1.147-40.152l-2.293 1.147h-2.294l-1.147-2.294v-1.148h1.147l1.147 1.148h2.293v1.147h1.147zm3.44-5.736v-1.147l-1.147-1.148h-1.146l1.146-1.147v-1.147h1.147l1.147-1.147h1.147l1.146 1.147v2.294l2.294 1.148v1.147h-1.147v1.147h2.293l2.294 1.147h-2.294l-1.146-1.147h-1.147v1.147l1.147 1.147-1.147 1.148v1.147s-1.147-1.147 0-1.147l-1.147-2.295h-2.293l-1.147-2.294zm18.348 37.857l-1.147 1.148h-2.293l-2.294-1.148h-3.44l-1.147-1.147v-1.147h1.147l2.293 1.147h1.147l1.147 1.147h1.147v-3.441l-1.147-1.147-1.147-1.148v-1.147l-3.44-1.147-1.147-2.294-1.147-1.148v-1.147l-2.293-2.294-1.147-1.147h2.294l-1.147-1.148-1.147-1.147 2.294 1.147-1.147-1.147-2.293-1.147-1.147-1.147 1.147-1.147 2.293 1.147 1.147 1.147 1.146 2.294 1.147 1.148 1.147 1.147v-1.147l-1.147-1.148 2.294 1.148h1.146v-1.148l-1.146-3.441-2.294-1.147h-1.147l-1.146-2.295-1.147 1.147-1.147-2.294-1.146-1.147v-1.147l1.146 1.147h1.147l2.293 1.147 1.147 1.147h1.147l1.147 1.147h1.146l2.294 3.442v4.589l1.147 2.294v1.147l1.146 1.148 1.147 1.147 1.147 1.147h1.146v1.147l1.147 1.147v4.589l-2.293 1.147zm25.227 4.589l1.147 1.147v2.295s-1.147 1.147-1.147 0v-3.442zm-3.44 21.797v1.147h-1.146l1.146-1.147zm-10.32-14.914l1.147-1.147v-1.147h2.293l2.293 1.147v2.295l1.147 1.147h-4.587l-2.293-2.295zm17.201 26.386v2.294h-1.147v2.295h-2.294v-2.295l-1.146-1.147h-1.147l-5.734-4.589-2.293-1.147h-1.147l1.147-1.147 1.147 1.147h3.44l1.147 1.147v1.148l1.146-1.148-1.146-1.147-1.147-1.147h-3.44v-1.147l1.146-1.147-1.146-2.295 1.146-1.147h1.147l-1.147 1.147v1.147l2.294 1.148 5.733 3.441 1.147 1.147 2.294 1.148 1.146 1.147-1.146 1.147zm3.44-14.914l-3.44-2.294-1.147-2.294v-1.148l1.147 1.148 2.293 1.147 2.294 2.294-1.147 1.147zm27.521 175.522l-1.147 1.147v1.147h-1.146v1.148l-1.147 1.147-1.147-1.147-2.293-1.148h3.44l1.147-1.147 3.44-2.294-1.147 1.147zm8.027-139.958l-1.147-1.148v-1.147l-1.146-3.441-1.147-1.148v-2.294l-1.147-1.147h-8.027l-1.147 1.147h-1.146l-1.147-1.147h-2.293l-1.147-2.295-1.147-1.147h-2.293l-3.44 1.147v1.148l1.146-1.148 2.294-1.147 1.146-1.147 1.147-1.147 1.147 1.147 1.147-1.147v2.294l-1.147 1.147v-1.147l2.293 1.147 1.147 1.148 1.147 1.147h11.467l1.147-1.147h1.146v-1.148l2.294-1.147-1.147 1.147v2.295l-1.147 2.294v2.295l1.147 2.294 1.147 1.147v1.147l-1.147 1.148zm17.201 98.659h1.147l-1.147 1.147-1.147 1.147v1.147l-1.147 2.295-1.146 1.147 1.146 1.147h-1.146l-1.147 1.147v4.589l-1.147-1.147h-1.146l-2.294 1.147-2.293 1.147v-1.147l2.293-3.441v-2.295l1.147-1.147 1.147 1.147v2.295h1.146l1.147-2.295v-2.294l1.147-1.147h1.146v-2.295l-1.146-1.147v-1.147l1.146 1.147h1.147v-3.442h2.294l1.146-1.147v-1.147h1.147l1.147 2.294v2.295h-2.294v1.147l-2.293-1.147zm4.587-92.923h-3.441l-1.147 1.147h-2.294l-3.44 1.147h-1.146l-1.147-1.147-1.147-1.147h-1.147 4.587l1.147-1.148h2.293l1.147-1.147h4.587l2.293-1.147v-1.147h4.587l2.294 1.147h6.88l2.293 1.147 1.147 1.147h1.147l3.44 1.148h1.147l2.293 1.147 1.147 2.294v1.147l-1.147-1.147-1.147-1.147h-4.586l-3.44 1.147-1.147-1.147-1.147-1.147-1.147-1.147h-5.733l-2.294-1.148-2.293-1.147h-1.147l-3.44 1.147 1.147 1.148zm32.108 36.71h-1.147l-1.147 1.147h-1.146v2.295l-1.147 1.147h-1.147v1.147l-1.147 1.147v5.736h-1.146l-1.147 1.147h-2.293l-1.147 1.148-1.147 1.147-1.147 2.294-1.146 1.147h-2.294l-2.293 2.295-1.147 1.147v1.147h-1.147v1.147l1.147 1.148 1.147 1.147v3.441l-1.147 1.148-1.147 1.147v2.294h1.147l1.147 1.147v1.148l1.147 1.147h-1.147l-1.147 1.147-1.147 1.147v9.178l-3.44-1.147v4.588h-2.293l-1.147 1.148v-1.148l1.147-2.294v-3.442l1.147-1.147 2.293-2.294v-9.178l2.293-2.294 1.147-1.147v-1.148h-2.293v-1.147l1.146-2.294 1.147-1.147v-1.148l-1.147-1.147-1.146-1.147v-2.294l1.146-1.148v-1.147l1.147-2.294 2.294-2.295 1.146-1.147h1.147l1.147-1.147 2.293-2.294h2.294l1.146-2.295v-2.294l1.147-2.295 1.147-1.147 1.147-2.294v-2.295l2.293-1.147 4.587 4.589zm6.88-28.68h-2.293l-1.147 1.147h-1.147l-1.147-1.147v2.294h-2.293v1.148h-2.293v2.294l1.146 2.294v3.442h-1.146l-1.147 1.147v1.147l1.147 1.148v1.147h1.146l1.147 1.147v1.147h1.147l1.147-1.147 1.146-2.294h1.147v10.324h2.293l1.147 1.148h2.294-4.587l-1.147-1.148-1.147-1.147v-3.441l-5.733-2.295-1.147-1.147-2.293-1.147v-5.736l1.146-1.147h1.147v-6.884l1.147-1.147h1.146v-1.147h1.147l1.147-1.147h1.147l1.146 1.147h2.294v-1.147l1.146 1.147h1.147zm27.521-11.472l-2.293 2.294-1.147 1.148 1.147 1.147h1.147l1.146 1.147h-4.586l-1.147 1.147h-1.147l-1.147-1.147h-3.44l2.294-1.147h4.587l2.293-1.147h1.147l1.146-3.442-1.146-1.147-1.147-1.147h-1.147v-3.442l1.147 1.147h1.147l1.146 1.147h1.147v1.148l-1.147 2.294zm3.44-16.061v1.147l-1.146 2.295h-2.294v1.147l-1.146 1.147v1.147l-2.294 1.148v-2.295l1.147-1.147 1.147-1.147 1.146-1.147h1.147v-1.148l2.293-1.147zm12.614-13.766h-2.293v3.441h-1.147l-1.146-1.147-2.294-2.294v-3.442l-2.293-3.441h-2.294l-1.147 1.147v-1.147l1.147-1.148 1.147-2.294v-1.147h-1.147l1.147-1.147v-2.295l1.147-2.294 1.146-1.147-1.146-2.295v-2.294l-1.147-2.295 1.147 1.148 1.146 1.147 1.147 2.294 1.147 2.295-1.147 1.147h-1.147l-1.146 1.147v1.147l2.293 1.147 1.147 1.148-1.147 1.147v3.441l1.147 2.295v1.147l1.146 1.147 1.147 1.147h1.147l2.293 2.295zm45.87-204.202l-1.148 2.295h-3.44l-1.146-2.295v-1.147h1.146l1.147-1.147h2.293l1.147-1.147 2.293-1.148h1.147v1.148l-3.44 3.441zm3.44 3.442l-2.294-1.147v-1.148h1.146l1.147 1.148v1.147zm135.312 235.176h-3.44l-1.147-1.147h-6.88v-1.148l1.147-2.294h1.146v1.147l1.147 1.147 1.147-1.147v-1.147l2.293-2.294h1.147v1.147h-1.147v2.294l1.147-2.294 1.147-1.147h1.146v1.147l-1.146 1.147-1.147 1.147 1.147 1.147h2.293v2.295zm2.293-5.736h-1.146v-1.147h1.146v1.147zm9.174-8.031h-1.147v-2.294l2.294-1.147 1.147 1.147-2.294 2.294zM191.1 98.659h-1.146v-1.147l-1.147-1.147v-1.147l1.147-1.148 1.146 1.148 1.147 1.147-1.147 2.294zm17.201 353.338l-3.44 3.441-1.147 3.442-2.293 1.147-1.147 2.295-1.147 2.294-1.146 1.147v1.147-2.294l1.146-1.147 1.147-2.295 1.147-2.294 1.147-1.147 1.146-1.147 2.294-2.295v-2.294l-1.147-3.442v-1.147l1.147-1.147 1.146 1.147 1.147 4.589zm4.587-367.104l-2.293-1.147v-1.148h1.146l1.147 2.295zm6.88-19.503l-1.146 2.295-2.294 2.294-1.147 1.147h-2.293l-1.147 1.148-1.146 1.147h-1.147l1.147 1.147v1.147h-1.147l-1.147-1.147v1.147l-1.147 1.147h-2.293v1.148l-1.147 1.147v1.147l1.147 1.147v1.147l-1.147-1.147h-2.293l-1.147 1.147v1.148h1.147l2.293 2.294v2.294l-1.146 1.148-2.294-1.148-1.147-1.147h-2.293V86.04h-1.147l-1.147 1.147v1.147h1.147l1.147 1.148 1.147 2.294 2.293 1.147 1.147 1.147 1.147 2.295h1.146l1.147 1.147v1.147h-1.147l-2.293 1.147h-1.147v-3.441l-3.44-3.442-3.44-3.441-2.294-1.148h-1.146l-2.294 1.148-1.146 1.147v-1.147l-2.294-1.148-1.147-1.147h3.441l1.146-2.294V81.45l-1.146-1.147-1.147-3.442-2.294-1.147-1.146-1.147 1.146-1.147v-1.147h-3.44v-1.148h2.294l2.293 1.148 1.147 2.294-1.147 1.147 1.147 1.147h2.293l1.147 1.148 2.293 1.147 1.147 1.147h2.293l1.147 1.147 2.294-1.147 2.293-2.294 3.44-1.148 2.294-2.294h1.146v-2.294l1.147-1.148h1.147l1.147-1.147v-2.294l-1.147 1.147-2.294 1.147v-1.147l-2.293-3.442v-2.294l-1.147-1.147h-1.146v-1.147l1.146-1.148h3.44l1.147 1.148 1.147 2.294 1.147 2.294 1.146 1.148h2.294l2.293-1.148h3.44zm11.468 16.061h-1.147l-2.294-2.294h-1.146l1.146-2.295 2.294-1.147 2.293 1.147v2.295l-1.146 2.294zm4.586-8.03l-2.293-3.442h-4.587l-1.147-1.147 1.147-1.147 2.294-1.147 1.146 1.147 1.147 1.147h1.147l1.146 1.147 1.147 1.147-1.147 2.295zm64.217 415.286l-1.147-1.147h-3.44v-1.147l-2.294-1.147v-3.442l1.147-2.294v-1.148l-1.147-1.147h-8.027l-2.293-2.294v-2.295l1.147-1.147v1.147l1.146 1.148 1.147 1.147h1.147l2.293 1.147 1.147-1.147h1.147l1.146 1.147 1.147 2.294v1.148l-1.147 1.147 1.147 2.294 2.293 2.295 4.587 1.147-1.146 2.294zm68.803-199.613l2.293-1.147h3.44l1.147 1.147 1.147 3.442h1.146l2.294 2.294v2.295l-1.147 1.147 1.147 1.147h2.293l1.147-1.147-1.147-1.147 1.147-1.147 1.147-2.295 1.146-1.147 1.147 1.147 1.147 4.589h1.147l1.146-1.147v-1.147l1.147-1.148h2.293l-2.293 2.295-1.147 2.294v1.147l-1.146 1.148h-2.294l-1.147-3.442-1.146-2.294v1.147l-1.147 1.147v2.294l1.147 1.148h1.146l1.147 2.294v4.589l1.147 2.294 1.147 2.295v2.294l1.146 1.147v1.147l-1.146 1.148h-3.441l-2.293-1.148-2.293-1.147h-1.147l-1.147-1.147h-1.147l1.147-1.147 2.294 1.147 2.293 1.147 3.44 1.147 1.147-1.147-1.147-2.294v-1.147l-2.293-3.442-1.147-3.442v-1.147l1.147-5.736-2.294-1.147h-4.587l-1.146-1.147v-3.442h-1.147v1.147l-1.147-1.147-1.146-3.441-2.294-1.148h-2.293zm57.336 157.167l-1.147-2.295v-2.294l-1.147-1.147-1.147 2.294v2.295l-1.146 2.294v1.147l1.146-1.147 1.147-1.147h1.147l2.293 1.147v1.147l-1.146 1.147h-3.441l-1.146 1.148-1.147 3.441-2.293 3.442h-1.147l-1.147 2.294-1.147 1.147-2.293 2.295v1.147h-3.44l-1.147 1.147v1.147l1.147 1.148v2.294l-1.147 2.294-1.147 2.295-2.293 1.147h-1.147l-2.293 1.147h-1.147l-3.44 1.147h-3.44l-1.147-1.147v-1.147l2.293-1.147 1.147-1.147h1.147l1.147-1.148v-1.147h-3.441l-1.146 1.147h-1.147v-1.147l1.147-1.147-1.147-1.147-2.293-2.295-1.147-1.147h-1.147l-1.147-2.294-1.146-1.147-1.147-2.295-1.147-1.147h-2.293l-1.147-1.147-1.147-3.442-1.146-2.294-3.44-4.589-1.147-2.294v-4.589l-1.147-4.589v-2.294l-1.147-1.148-1.146-1.147-1.147-5.736-1.147-2.294v-2.295l-1.146-1.147-4.587-6.883-1.147-1.147h-2.293l-2.294 1.147v3.442l1.147 1.147h1.147l1.146 1.147h1.147l1.147 1.147v1.147l1.146 1.148v1.147l-1.146 1.147v8.03h-2.294v1.148h-1.146v3.441-1.147h2.293v-6.883l1.147-2.295-1.147-1.147v-1.147l-1.147-1.147h-1.146l-1.147 1.147-1.147 1.147h-1.147v3.442h-3.44l-1.147 1.147v1.147h-1.146l-1.147-1.147 1.147-1.147h3.44v-1.147l2.293-2.295h3.441v-1.147h-1.147l-2.294-2.294v-2.295l-1.146-1.147h-1.147l-2.294-1.147 1.147-1.147v-4.589l-1.147-3.442v-1.147l-2.293-2.294-2.293-1.148-1.147-1.147 1.147-2.294 3.44-1.147 2.293-1.148v-1.147l-1.147-1.147v-3.442l-1.146-1.147v-2.294l-2.294-4.589v-6.883l-1.146-2.295v-1.147l-1.147-1.147-2.294-2.294v-1.148l1.147 1.148 3.44 3.441 1.147 2.295v6.883l1.147 3.441 2.293 2.295 3.44 2.294h1.147v-2.294 4.589h1.147l1.147 1.147 2.293 1.147v-2.294l1.147-1.148 1.146 1.148v1.147l-1.146 1.147 1.146 1.147h-2.293l-1.147-1.147-1.146-1.147-2.294-1.147-1.147-1.148-2.293-2.294h-1.147l-1.147 1.147v3.442l1.147 1.147v2.294l-1.147 1.148-3.44 3.441v2.295l3.44 1.147 2.294 2.294 1.147 2.295 1.146 1.147 2.294-1.147v-1.148l1.147-1.147 1.146 1.147h2.294l1.146 2.295 2.294 4.589 3.44 4.588 1.147 1.148v1.147l1.146 5.736 1.147 2.294 1.147 1.147 1.147 1.148v5.736l1.146 2.294 2.294 2.294h-1.147l-1.147-1.147v1.147l1.147 2.295 1.147 2.294 2.293 2.295 1.147 3.441 1.147 3.442 1.146 1.147 1.147 1.147 1.147 1.147v1.148l1.146 1.147 1.147 1.147 1.147 1.147 1.147 1.147 2.293 2.295 1.147 1.147 3.44 2.294 1.147 1.148 1.146 1.147h2.294l1.146-2.295 1.147-2.294v-3.442l1.147-1.147 2.293-3.441 1.147-2.295 1.147-1.147v-1.147l-1.147-1.147v-1.148l2.294-2.294v-2.294l1.146-2.295v-1.147l1.147-1.147v-1.147l2.293-3.442v-1.147l1.147-1.147v-3.442l1.147-5.736v-5.736l-1.147-3.442-2.293-2.294v-1.147l1.146-1.147 1.147-1.148h2.294l1.146 1.148v1.147l1.147 1.147v2.294l1.147 3.442v2.294l1.146 3.442v2.294l1.147 2.295v1.147l1.147 1.147 1.147 1.147v2.295l-1.147 2.294 1.147 2.295v2.294-1.147zm157.1-39.005h-1.147l-2.293 1.147-1.147 2.295h-2.293l-1.147 1.147v1.147l1.147 1.147 1.146 1.147v1.148l-1.146 1.147v1.147l-1.147-1.147-1.147-1.147h1.147v-1.148l-3.44-2.294v-1.147h-1.147l-1.147-1.147h1.147l2.294 1.147 1.146-1.147 1.147-2.295 1.147 1.147 1.146-1.147 2.294-1.147h1.147l2.293-1.147h2.293l-2.293 1.147zm112.378 32.122l2.294-1.148 2.293-1.147h1.147l-1.147 1.147-2.293 1.148-1.147 1.147h-1.147v-1.147zm-6.88-8.031l1.147-1.147h1.147l-1.147 1.147v2.295l-1.147-1.148v-1.147zm-18.347 40.152v-1.147h1.146l1.147-1.147h1.147l-2.294 2.294-1.146 1.147v2.295l-1.147 1.147v-1.147l1.147-3.442zm-4.587-25.238v2.294h-1.147v-1.147l-1.147-2.294v-1.148l2.294 2.295zm-3.44-10.325l1.146-1.147v3.441l-2.293-1.147 1.147-1.147z" fill="#006FCD"/></svg>