<svg width="16" height="16" fill="none" xmlns="http://www.w3.org/2000/svg"><path d="M15.133 10.313l-3.175-1.361a1.433 1.433 0 00-1.668.409l-1.022 1.25a9.721 9.721 0 01-3.881-3.879l1.25-1.022a1.435 1.435 0 00.41-1.67L5.686.869A1.426 1.426 0 004.053.037L1.109.715A1.425 1.425 0 000 2.11C0 9.805 6.24 16.003 13.892 16a1.424 1.424 0 001.394-1.11l.678-2.944a1.43 1.43 0 00-.831-1.633zm-1.3 4.19C7.033 14.472 1.531 8.969 1.5 2.166l2.834-.653 1.315 3.069-2.127 1.74c1.45 3.095 3.068 4.708 6.156 6.157l1.74-2.128 3.069 1.316-.654 2.836z" fill="#fff"/></svg>