<svg width="10" height="10" fill="none" xmlns="http://www.w3.org/2000/svg"><path d="M9.458 6.445l-1.984-.85a.896.896 0 00-1.043.256l-.639.78a6.076 6.076 0 01-2.425-2.423l.781-.64a.897.897 0 00.256-1.042L3.554.543a.891.891 0 00-1.021-.52L.693.447A.89.89 0 000 1.318 8.68 8.68 0 008.683 10a.89.89 0 00.87-.694l.424-1.84a.893.893 0 00-.52-1.02zm-.812 2.62A7.744 7.744 0 01.937 1.353L2.71.945l.822 1.919L2.2 3.952c.906 1.933 1.918 2.942 3.848 3.847l1.087-1.33 1.918.823-.408 1.772z" fill="#006FCD"/></svg>